<?xml version="1.0" encoding="UTF-8"?>
<svg xmlns="http://www.w3.org/2000/svg" xmlns:xlink="http://www.w3.org/1999/xlink" width="32px" height="px" viewBox="0 0 32 32" version="1.1">
<g id="surface1">
<path style=" stroke:none;fill-rule:evenodd;fill:rgb(10.980392%,15.294118%,29.803923%);fill-opacity:1;" d="M 13.035156 28 L 18.964844 28 C 23.125 28 25.203125 28 26.699219 27.019531 C 27.347656 26.59375 27.902344 26.050781 28.335938 25.414062 C 29.332031 23.945312 29.332031 21.902344 29.332031 17.816406 C 29.332031 13.734375 29.332031 11.691406 28.335938 10.222656 C 27.902344 9.585938 27.347656 9.042969 26.699219 8.617188 C 25.738281 7.988281 24.535156 7.761719 22.695312 7.679688 C 21.816406 7.679688 21.0625 7.027344 20.890625 6.183594 C 20.628906 4.914062 19.496094 4 18.179688 4 L 13.820312 4 C 12.503906 4 11.371094 4.914062 11.109375 6.183594 C 10.9375 7.027344 10.183594 7.679688 9.304688 7.679688 C 7.464844 7.761719 6.261719 7.988281 5.300781 8.617188 C 4.652344 9.042969 4.097656 9.585938 3.664062 10.222656 C 2.667969 11.691406 2.667969 13.734375 2.667969 17.816406 C 2.667969 21.902344 2.667969 23.945312 3.664062 25.414062 C 4.097656 26.050781 4.652344 26.59375 5.300781 27.019531 C 6.796875 28 8.875 28 13.035156 28 Z M 16 12.363281 C 12.933594 12.363281 10.445312 14.804688 10.445312 17.816406 C 10.445312 20.832031 12.933594 23.273438 16 23.273438 C 19.066406 23.273438 21.554688 20.832031 21.554688 17.816406 C 21.554688 14.804688 19.066406 12.363281 16 12.363281 Z M 16 14.546875 C 14.160156 14.546875 12.667969 16.011719 12.667969 17.816406 C 12.667969 19.625 14.160156 21.089844 16 21.089844 C 17.839844 21.089844 19.332031 19.625 19.332031 17.816406 C 19.332031 16.011719 17.839844 14.546875 16 14.546875 Z M 22.296875 13.453125 C 22.296875 12.851562 22.792969 12.363281 23.40625 12.363281 L 24.890625 12.363281 C 25.503906 12.363281 26 12.851562 26 13.453125 C 26 14.058594 25.503906 14.546875 24.890625 14.546875 L 23.40625 14.546875 C 22.792969 14.546875 22.296875 14.058594 22.296875 13.453125 Z M 22.296875 13.453125 "/>
</g>
</svg>
