<?xml version="1.0" encoding="UTF-8"?>
<svg xmlns="http://www.w3.org/2000/svg" xmlns:xlink="http://www.w3.org/1999/xlink" width="24px" height="24px" viewBox="0 0 24 24" version="1.1">
<g id="surface1">
<path style=" stroke:none;fill-rule:evenodd;fill:rgb(10.980392%,15.294118%,29.803923%);fill-opacity:1;" d="M 9.777344 21 L 14.222656 21 C 17.34375 21 18.902344 21 20.023438 20.265625 C 20.511719 19.945312 20.925781 19.535156 21.25 19.0625 C 22 17.960938 22 16.429688 22 13.363281 C 22 10.300781 22 8.765625 21.25 7.667969 C 20.925781 7.191406 20.511719 6.78125 20.023438 6.460938 C 19.304688 5.988281 18.402344 5.820312 17.023438 5.761719 C 16.363281 5.761719 15.796875 5.269531 15.667969 4.636719 C 15.472656 3.683594 14.621094 3 13.632812 3 L 10.367188 3 C 9.378906 3 8.527344 3.683594 8.332031 4.636719 C 8.203125 5.269531 7.636719 5.761719 6.976562 5.761719 C 5.597656 5.820312 4.695312 5.988281 3.976562 6.460938 C 3.488281 6.78125 3.074219 7.191406 2.75 7.667969 C 2 8.765625 2 10.300781 2 13.363281 C 2 16.429688 2 17.960938 2.75 19.0625 C 3.074219 19.535156 3.488281 19.945312 3.976562 20.265625 C 5.097656 21 6.65625 21 9.777344 21 Z M 12 9.273438 C 9.699219 9.273438 7.832031 11.105469 7.832031 13.363281 C 7.832031 15.621094 9.699219 17.453125 12 17.453125 C 14.300781 17.453125 16.167969 15.621094 16.167969 13.363281 C 16.167969 11.105469 14.300781 9.273438 12 9.273438 Z M 12 10.910156 C 10.621094 10.910156 9.5 12.007812 9.5 13.363281 C 9.5 14.71875 10.621094 15.816406 12 15.816406 C 13.378906 15.816406 14.5 14.71875 14.5 13.363281 C 14.5 12.007812 13.378906 10.910156 12 10.910156 Z M 16.722656 10.089844 C 16.722656 9.640625 17.09375 9.273438 17.554688 9.273438 L 18.667969 9.273438 C 19.125 9.273438 19.5 9.640625 19.5 10.089844 C 19.5 10.542969 19.125 10.910156 18.667969 10.910156 L 17.554688 10.910156 C 17.09375 10.910156 16.722656 10.542969 16.722656 10.089844 Z M 16.722656 10.089844 "/>
</g>
</svg>
