<?xml version="1.0" encoding="UTF-8"?>
<svg xmlns="http://www.w3.org/2000/svg" xmlns:xlink="http://www.w3.org/1999/xlink" width="32px" height="px" viewBox="0 0 32 32" version="1.1">
<g id="surface1">
<path style="fill:none;stroke-width:2;stroke-linecap:round;stroke-linejoin:round;stroke:rgb(0%,0%,0%);stroke-opacity:1;stroke-miterlimit:4;" d="M 12 15.999023 C 13.658203 15.999023 15 14.657227 15 12.999023 C 15 11.34375 13.658203 9.999023 12 9.999023 C 10.341797 9.999023 9 11.34375 9 12.999023 C 9 14.657227 10.341797 15.999023 12 15.999023 Z M 12 15.999023 " transform="matrix(1.333333,0,0,1.333333,0,0)"/>
<path style="fill:none;stroke-width:2;stroke-linecap:round;stroke-linejoin:round;stroke:rgb(0%,0%,0%);stroke-opacity:1;stroke-miterlimit:4;" d="M 3 16.798828 L 3 9.199219 C 3 8.080078 3 7.520508 3.216797 7.092773 C 3.410156 6.714844 3.714844 6.410156 4.092773 6.216797 C 4.520508 6 5.080078 6 6.199219 6 L 7.253906 6 C 7.376953 6 7.438477 6 7.49707 5.994141 C 7.792969 5.958984 8.056641 5.794922 8.220703 5.545898 C 8.25 5.499023 8.279297 5.443359 8.332031 5.332031 C 8.443359 5.112305 8.499023 5.003906 8.560547 4.907227 C 8.885742 4.40918 9.416016 4.081055 10.007812 4.013672 C 10.12207 3.999023 10.245117 3.999023 10.491211 3.999023 L 13.508789 3.999023 C 13.754883 3.999023 13.87793 3.999023 13.992187 4.013672 C 14.583984 4.081055 15.114258 4.40918 15.439453 4.907227 C 15.500977 5.003906 15.556641 5.112305 15.667969 5.332031 C 15.720703 5.443359 15.75 5.499023 15.779297 5.545898 C 15.943359 5.794922 16.207031 5.958984 16.50293 5.994141 C 16.561523 6 16.623047 6 16.746094 6 L 17.800781 6 C 18.919922 6 19.479492 6 19.907227 6.216797 C 20.285156 6.410156 20.589844 6.714844 20.783203 7.092773 C 21 7.520508 21 8.080078 21 9.199219 L 21 16.798828 C 21 17.920898 21 18.480469 20.783203 18.908203 C 20.589844 19.283203 20.285156 19.59082 19.907227 19.78125 C 19.479492 20.000977 18.919922 20.000977 17.800781 20.000977 L 6.199219 20.000977 C 5.080078 20.000977 4.520508 20.000977 4.092773 19.78125 C 3.714844 19.59082 3.410156 19.283203 3.216797 18.908203 C 3 18.480469 3 17.920898 3 16.798828 Z M 3 16.798828 " transform="matrix(1.333333,0,0,1.333333,0,0)"/>
</g>
</svg>
