<?xml version="1.0" encoding="UTF-8"?>
<svg xmlns="http://www.w3.org/2000/svg" xmlns:xlink="http://www.w3.org/1999/xlink" width="32px" height="32px" viewBox="0 0 32 32" version="1.1">
<g id="surface1">
<path style=" stroke:none;fill-rule:nonzero;fill:rgb(0%,0%,0%);fill-opacity:1;" d="M 7.320312 15.308594 C 7.261719 15.832031 7.21875 16.363281 7.199219 16.898438 L 1.355469 16.898438 C 0.765625 16.898438 0.285156 17.378906 0.285156 17.96875 C 0.285156 18.558594 0.765625 19.039062 1.355469 19.039062 L 7.214844 19.039062 C 7.308594 20.84375 7.617188 22.652344 8.128906 24.328125 L 3.355469 29.101562 C 2.9375 29.519531 2.9375 30.195312 3.355469 30.613281 C 3.773438 31.03125 4.449219 31.03125 4.867188 30.613281 L 8.957031 26.523438 C 10.261719 29.371094 12.269531 31.503906 14.929688 32 L 14.929688 15.308594 Z M 7.320312 15.308594 "/>
<path style=" stroke:none;fill-rule:nonzero;fill:rgb(0%,0%,0%);fill-opacity:1;" d="M 30.644531 16.898438 L 24.800781 16.898438 C 24.78125 16.363281 24.738281 15.832031 24.679688 15.308594 L 17.070312 15.308594 L 17.070312 32 C 19.710938 31.507812 21.734375 29.382812 23.046875 26.527344 L 27.132812 30.613281 C 27.550781 31.03125 28.226562 31.03125 28.644531 30.613281 C 29.0625 30.195312 29.0625 29.519531 28.644531 29.101562 L 23.878906 24.332031 C 24.390625 22.667969 24.699219 20.859375 24.792969 19.039062 L 30.644531 19.039062 C 31.234375 19.039062 31.714844 18.558594 31.714844 17.96875 C 31.714844 17.378906 31.234375 16.898438 30.644531 16.898438 Z M 30.644531 16.898438 "/>
<path style=" stroke:none;fill-rule:nonzero;fill:rgb(0%,0%,0%);fill-opacity:1;" d="M 28.644531 5.320312 C 28.226562 4.902344 27.550781 4.902344 27.132812 5.320312 L 23.070312 9.386719 C 21.855469 6.769531 20.160156 5.078125 18.324219 4.308594 L 20.828125 2.140625 L 25.386719 2.140625 C 25.976562 2.140625 26.457031 1.660156 26.457031 1.070312 C 26.457031 0.480469 25.976562 0 25.386719 0 L 20.429688 0 C 20.171875 0 19.925781 0.09375 19.730469 0.261719 L 16 3.492188 L 12.269531 0.261719 C 12.074219 0.09375 11.828125 0 11.570312 0 L 6.613281 0 C 6.023438 0 5.542969 0.480469 5.542969 1.070312 C 5.542969 1.660156 6.023438 2.140625 6.613281 2.140625 L 11.171875 2.140625 L 13.675781 4.308594 C 11.839844 5.074219 10.144531 6.765625 8.929688 9.386719 L 4.867188 5.320312 C 4.449219 4.902344 3.773438 4.902344 3.355469 5.320312 C 2.9375 5.738281 2.9375 6.417969 3.355469 6.835938 L 8.097656 11.578125 C 7.945312 12.085938 7.804688 12.613281 7.679688 13.167969 L 24.320312 13.167969 C 24.195312 12.613281 24.054688 12.085938 23.902344 11.578125 L 28.644531 6.835938 C 29.0625 6.417969 29.0625 5.738281 28.644531 5.320312 Z M 28.644531 5.320312 "/>
</g>
</svg>
