<?xml version="1.0" encoding="UTF-8"?>
<svg xmlns="http://www.w3.org/2000/svg" xmlns:xlink="http://www.w3.org/1999/xlink" width="50px" height="53px" viewBox="0 0 50 52" version="1.1">
<g id="surface1">
<path style=" stroke:none;fill-rule:nonzero;fill:rgb(0%,0%,0%);fill-opacity:1;" d="M 36.519531 1.65625 C 36.453125 1.679688 36.160156 1.769531 35.867188 1.863281 C 35.570312 1.953125 35.277344 2.089844 35.210938 2.167969 C 35.140625 2.25 34.851562 2.347656 34.476562 2.410156 C 33.339844 2.601562 32.738281 2.996094 32.3125 3.832031 C 31.976562 4.484375 31.96875 5.046875 32.222656 8.277344 C 32.433594 11.046875 32.53125 12.566406 32.679688 15.628906 C 32.777344 17.492188 32.882812 18.808594 32.972656 19.097656 C 33.007812 19.226562 32.980469 19.28125 32.859375 19.316406 C 32.769531 19.347656 32.679688 19.445312 32.65625 19.53125 C 32.574219 19.828125 33.054688 22.972656 33.285156 23.613281 C 33.628906 24.601562 34.609375 25.695312 35.6875 26.296875 L 36.355469 26.683594 L 36.355469 27.0625 C 36.355469 27.527344 36.101562 29.027344 35.832031 30.144531 C 35.335938 32.234375 34.058594 35.007812 32.941406 36.476562 C 32.199219 37.449219 31.054688 38.558594 30.34375 39.007812 C 29.671875 39.433594 28.628906 39.898438 27.875 40.109375 C 26.96875 40.367188 25.613281 40.367188 25.050781 40.109375 C 23.980469 39.632812 23.554688 38.96875 23.203125 37.265625 C 23.152344 37.007812 23.0625 36.796875 23.015625 36.796875 C 22.769531 36.796875 21.550781 36.960938 21.496094 36.992188 C 21.371094 37.0625 21.640625 38.230469 22.027344 39.335938 C 22.371094 40.324219 22.394531 40.4375 22.394531 41.265625 C 22.394531 41.746094 22.351562 42.328125 22.304688 42.542969 C 22.058594 43.636719 21.300781 44.566406 20.382812 44.914062 C 19.328125 45.308594 17.941406 45.105469 16.390625 44.335938 C 15.277344 43.789062 14.609375 43.355469 13.414062 42.40625 C 12.164062 41.417969 11.773438 41.167969 11.152344 40.984375 C 9.625 40.519531 8.144531 40.816406 7.261719 41.757812 C 6.902344 42.140625 6.40625 43.089844 6.496094 43.226562 C 6.519531 43.265625 6.773438 43.304688 7.050781 43.304688 C 7.328125 43.304688 7.679688 43.339844 7.828125 43.378906 C 8.078125 43.453125 8.097656 43.441406 8.25 43.136719 C 8.339844 42.96875 8.570312 42.726562 8.75 42.609375 C 9.035156 42.421875 9.160156 42.390625 9.707031 42.398438 C 10.597656 42.398438 11.046875 42.589844 12.132812 43.453125 C 13.578125 44.59375 14.761719 45.378906 15.726562 45.835938 C 16.820312 46.359375 17.523438 46.578125 18.503906 46.695312 C 19.140625 46.777344 19.355469 46.769531 19.941406 46.65625 C 22.230469 46.214844 23.914062 44.367188 24.078125 42.117188 C 24.117188 41.59375 24.148438 41.457031 24.238281 41.492188 C 25.089844 41.8125 26.667969 41.917969 27.65625 41.707031 C 28.871094 41.457031 30.335938 40.863281 31.339844 40.207031 C 31.8125 39.890625 33.007812 38.886719 33.332031 38.519531 C 35.644531 35.921875 37.082031 32.628906 37.828125 28.25 C 37.925781 27.679688 38.03125 27.132812 38.070312 27.035156 C 38.121094 26.914062 38.277344 26.828125 38.652344 26.722656 C 40.074219 26.335938 41.371094 25.324219 41.929688 24.183594 C 42.222656 23.574219 42.550781 22.5625 42.933594 21.050781 L 43.152344 20.207031 L 42.746094 19.871094 L 42.890625 19.4375 C 42.972656 19.195312 43.171875 18.148438 43.339844 17.113281 C 43.921875 13.402344 44.378906 10.695312 44.789062 8.515625 C 45.375 5.34375 45.390625 5.238281 45.269531 4.714844 C 45.148438 4.160156 44.789062 3.609375 44.363281 3.300781 C 44.183594 3.171875 43.710938 2.957031 43.324219 2.8125 C 42.933594 2.675781 42.582031 2.515625 42.53125 2.449219 C 42.371094 2.242188 41.085938 1.757812 40.769531 1.785156 C 40.523438 1.808594 40.457031 1.855469 40.320312 2.128906 C 40.128906 2.515625 40.050781 3.328125 40.195312 3.414062 C 40.246094 3.445312 40.695312 3.511719 41.183594 3.558594 C 41.894531 3.625 42.117188 3.625 42.269531 3.535156 C 42.613281 3.359375 43.621094 3.6875 44.003906 4.113281 C 44.558594 4.707031 44.558594 5.023438 44.003906 7.550781 C 43.652344 9.152344 43.269531 11.121094 42.640625 14.460938 C 42.507812 15.195312 42.359375 15.949219 42.320312 16.148438 C 42.125 17.058594 41.828125 18.984375 41.828125 19.355469 C 41.828125 19.75 41.820312 19.765625 41.601562 19.765625 C 41.191406 19.765625 40.816406 20.109375 40.472656 20.785156 C 40.105469 21.507812 39.679688 21.957031 39.140625 22.199219 C 38.839844 22.34375 38.609375 22.375 37.949219 22.367188 C 36.921875 22.367188 36.355469 22.167969 35.785156 21.621094 C 35.464844 21.316406 35.359375 21.132812 35.171875 20.585938 C 34.925781 19.835938 34.671875 19.5 34.273438 19.355469 L 33.996094 19.25 L 33.996094 18.585938 C 33.996094 18.214844 33.953125 17.46875 33.90625 16.929688 C 33.863281 16.390625 33.734375 14.71875 33.621094 13.21875 C 33.503906 11.714844 33.285156 9.191406 33.128906 7.625 C 32.925781 5.550781 32.867188 4.691406 32.925781 4.5 C 33.128906 3.785156 33.808594 3.277344 34.699219 3.164062 C 35.089844 3.117188 35.148438 3.132812 35.285156 3.300781 C 35.433594 3.488281 35.488281 3.496094 36.4375 3.488281 C 37.65625 3.488281 37.6875 3.464844 37.648438 2.636719 C 37.605469 1.9375 37.417969 1.65625 36.960938 1.632812 C 36.789062 1.621094 36.585938 1.632812 36.519531 1.65625 Z M 34.566406 21.148438 C 35.34375 22.808594 37.71875 23.589844 39.519531 22.777344 C 40.03125 22.546875 40.703125 21.949219 40.996094 21.453125 C 41.308594 20.9375 41.316406 21.1875 41.011719 22.3125 C 40.703125 23.5 40.449219 24.015625 39.976562 24.425781 C 38.644531 25.582031 36.660156 25.535156 35.433594 24.328125 C 34.753906 23.652344 34.5 22.996094 34.355469 21.53125 C 34.320312 21.242188 34.28125 20.945312 34.265625 20.867188 C 34.175781 20.5625 34.378906 20.753906 34.566406 21.148438 Z M 34.566406 21.148438 "/>
<path style=" stroke:none;fill-rule:nonzero;fill:rgb(0%,0%,0%);fill-opacity:1;" d="M 23.105469 3.109375 C 21.347656 5.277344 20.03125 7.3125 18.914062 9.585938 C 18.0625 11.320312 17.566406 12.566406 17.140625 14.042969 C 16.820312 15.160156 16.8125 15.210938 16.960938 15.289062 C 17.386719 15.523438 19.550781 16.992188 20.03125 17.378906 C 20.335938 17.613281 20.964844 18.140625 21.421875 18.550781 L 22.253906 19.300781 L 22.402344 18.746094 C 22.628906 17.867188 23.269531 14.742188 23.398438 13.820312 C 23.621094 12.316406 23.773438 10.445312 23.816406 8.675781 C 23.863281 6.53125 23.855469 6.675781 23.9375 6.886719 C 24.265625 7.671875 24.453125 11.890625 24.273438 14.222656 C 24.132812 15.980469 23.898438 17.707031 23.5625 19.484375 C 23.113281 21.804688 23.054688 22.09375 22.800781 23.742188 C 22.558594 25.269531 22.351562 26.988281 22.269531 28.121094 L 22.230469 28.722656 L 22.6875 28.203125 C 23.457031 27.332031 24.796875 26.074219 25.53125 25.535156 C 26.992188 24.449219 28.226562 23.863281 30.230469 23.285156 C 30.578125 23.179688 30.597656 23.164062 30.660156 22.777344 C 30.769531 22.160156 30.761719 18.945312 30.652344 18.039062 C 30.058594 13.167969 28.480469 9.007812 25.792969 5.222656 C 25.140625 4.316406 23.710938 2.570312 23.601562 2.570312 C 23.570312 2.570312 23.351562 2.8125 23.105469 3.109375 Z M 23.105469 3.109375 "/>
<path style=" stroke:none;fill-rule:nonzero;fill:rgb(0%,0%,0%);fill-opacity:1;" d="M 7.132812 14.71875 C 7.269531 19.316406 8.382812 23.109375 10.726562 27.011719 C 12.890625 30.605469 15.6875 33.28125 18.808594 34.742188 C 19.738281 35.183594 20.972656 35.640625 21.039062 35.585938 C 21.054688 35.5625 21.039062 35.296875 20.996094 34.992188 C 20.839844 33.867188 20.75 32.136719 20.75 30.363281 L 20.75 28.539062 L 20.488281 28.433594 C 19.5 28.039062 16.578125 25.757812 15.480469 24.546875 C 15.210938 24.25 14.910156 23.902344 14.804688 23.789062 C 14.394531 23.339844 13.449219 22.0625 13 21.355469 C 12.074219 19.910156 10.472656 16.695312 10.5625 16.445312 C 10.570312 16.40625 10.800781 16.726562 11.070312 17.160156 C 11.765625 18.328125 12.65625 19.589844 13.546875 20.679688 C 14.589844 21.964844 16.640625 23.976562 17.820312 24.859375 C 18.726562 25.542969 20.703125 26.835938 20.839844 26.835938 C 20.875 26.835938 20.921875 26.683594 20.949219 26.488281 C 21.21875 24.546875 21.511719 22.835938 21.871094 21.226562 L 22.019531 20.550781 L 21.601562 20.183594 C 20.703125 19.347656 19.859375 18.640625 19.238281 18.183594 C 17.042969 16.550781 14.386719 15.210938 11.558594 14.285156 C 10.320312 13.875 7.425781 13.097656 7.164062 13.097656 C 7.109375 13.097656 7.101562 13.691406 7.132812 14.71875 Z M 7.132812 14.71875 "/>
<path style=" stroke:none;fill-rule:nonzero;fill:rgb(0%,0%,0%);fill-opacity:1;" d="M 32.640625 23.679688 C 31.175781 24 29.265625 24.617188 28.292969 25.085938 C 26.019531 26.160156 24.238281 27.703125 22.671875 29.929688 L 22.269531 30.492188 L 22.378906 32.097656 C 22.492188 33.898438 22.65625 35.246094 22.769531 35.359375 C 22.867188 35.457031 24.167969 35.265625 25.082031 35.03125 C 26.691406 34.605469 28.511719 33.730469 29.820312 32.742188 C 31.4375 31.527344 33.226562 29.269531 34.445312 26.90625 L 34.8125 26.199219 L 34.328125 25.734375 C 33.78125 25.203125 33.261719 24.457031 33.097656 23.960938 C 32.980469 23.621094 32.949219 23.605469 32.640625 23.679688 Z M 32.640625 23.679688 "/>
<path style=" stroke:none;fill-rule:nonzero;fill:rgb(0%,0%,0%);fill-opacity:1;" d="M 5.636719 43.859375 C 4.566406 44.199219 3.816406 44.824219 3.324219 45.78125 C 2.082031 48.222656 3.554688 51.074219 6.273438 51.511719 C 7.785156 51.75 9.511719 50.921875 10.230469 49.605469 C 10.90625 48.375 10.859375 46.59375 10.121094 45.4375 C 9.601562 44.617188 8.996094 44.160156 8.054688 43.878906 C 7.34375 43.660156 6.28125 43.652344 5.636719 43.859375 Z M 7.664062 45.796875 C 8.960938 46.375 9.230469 48.101562 8.160156 49.042969 C 7.738281 49.429688 7.34375 49.574219 6.75 49.574219 C 5.898438 49.574219 5.210938 49.066406 4.917969 48.214844 C 4.78125 47.8125 4.804688 47.171875 4.976562 46.800781 C 5.15625 46.414062 5.769531 45.855469 6.144531 45.742188 C 6.585938 45.597656 7.28125 45.621094 7.664062 45.796875 Z M 7.664062 45.796875 "/>
<path style=" stroke:none;fill-rule:nonzero;fill:rgb(0%,0%,0%);fill-opacity:1;" d="M 6.398438 46.335938 C 6.300781 46.351562 6.070312 46.503906 5.882812 46.664062 C 5.171875 47.292969 5.300781 48.351562 6.128906 48.769531 C 7.101562 49.261719 8.171875 48.632812 8.171875 47.589844 C 8.171875 46.714844 7.371094 46.152344 6.398438 46.335938 Z M 6.398438 46.335938 "/>
</g>
</svg>
