<?xml version="1.0" standalone="no"?>
<!DOCTYPE svg PUBLIC "-//W3C//DTD SVG 20010904//EN"
 "http://www.w3.org/TR/2001/REC-SVG-20010904/DTD/svg10.dtd">
<svg version="1.0" xmlns="http://www.w3.org/2000/svg"
 width="612.000000pt" height="647.000000pt" viewBox="0 0 612.000000 647.000000"
 preserveAspectRatio="xMidYMid meet">

<g transform="translate(0.000000,647.000000) scale(0.100000,-0.100000)"
fill="#000000" stroke="none">
<path d="M4470 6264 c-8 -3 -44 -14 -80 -26 -36 -11 -72 -28 -80 -38 -9 -10
-44 -22 -90 -30 -139 -24 -213 -73 -265 -177 -41 -81 -42 -151 -11 -553 26
-345 38 -534 56 -915 12 -232 25 -396 36 -432 4 -16 1 -23 -14 -27 -11 -4 -22
-16 -25 -27 -10 -37 49 -428 77 -508 42 -123 162 -259 294 -334 l82 -48 0 -47
c0 -58 -31 -245 -64 -384 -61 -260 -217 -605 -354 -788 -91 -121 -231 -259
-318 -315 -82 -53 -210 -111 -302 -137 -111 -32 -277 -32 -346 0 -131 59 -183
142 -226 354 -6 32 -17 58 -23 58 -30 0 -179 -20 -186 -24 -15 -9 18 -154 65
-292 42 -123 45 -137 45 -240 0 -60 -5 -132 -11 -159 -30 -136 -123 -252 -235
-295 -129 -49 -299 -24 -489 72 -136 68 -218 122 -364 240 -153 123 -201 154
-277 177 -187 58 -368 21 -476 -96 -44 -48 -105 -166 -94 -183 3 -5 34 -10 68
-10 34 0 77 -4 95 -9 31 -9 33 -8 52 30 11 21 39 51 61 66 35 23 50 27 117 26
109 0 164 -24 297 -131 177 -142 322 -240 440 -297 134 -65 220 -92 340 -107
78 -10 104 -9 176 5 280 55 486 285 506 565 5 65 9 82 20 78 104 -40 297 -53
418 -27 149 31 328 105 451 187 58 39 204 164 244 210 283 323 459 733 550
1278 12 71 25 139 30 151 6 15 25 26 71 39 174 48 333 174 401 316 36 76 76
202 123 390 l27 105 -25 21 -25 21 18 54 c10 30 34 160 55 289 71 462 127 799
177 1070 72 395 74 408 59 473 -15 69 -59 138 -111 176 -22 16 -80 43 -127 61
-48 17 -91 37 -97 45 -20 26 -177 86 -216 83 -30 -3 -38 -9 -55 -43 -23 -48
-33 -149 -15 -160 6 -4 61 -12 121 -18 87 -8 114 -8 133 3 42 22 165 -19 212
-72 68 -74 68 -113 0 -428 -43 -199 -90 -444 -167 -860 -16 -91 -34 -185 -39
-210 -24 -113 -60 -353 -60 -399 0 -49 -1 -51 -28 -51 -50 0 -96 -43 -138
-127 -45 -90 -97 -146 -163 -176 -37 -18 -65 -22 -146 -21 -126 0 -195 25
-265 93 -39 38 -52 61 -75 129 -30 93 -61 135 -110 153 l-34 13 0 83 c0 46 -5
139 -11 206 -5 67 -21 275 -35 462 -14 187 -41 501 -60 696 -25 258 -32 365
-25 389 25 89 108 152 217 166 48 6 55 4 72 -17 18 -23 25 -24 141 -23 149 0
153 3 148 106 -5 87 -28 122 -84 125 -21 1 -46 0 -54 -3z m-239 -2426 c95
-207 386 -304 606 -203 63 29 145 103 181 165 38 64 39 33 2 -107 -38 -148
-69 -212 -127 -263 -163 -144 -406 -138 -556 12 -83 84 -114 166 -132 348 -4
36 -9 73 -11 83 -11 38 14 14 37 -35z"/>
<path d="M2828 6083 c-215 -270 -376 -523 -513 -806 -104 -216 -165 -371 -217
-555 -39 -139 -40 -145 -22 -155 52 -29 317 -212 376 -260 37 -29 114 -95 170
-146 l102 -93 18 69 c28 109 106 498 122 613 27 187 46 420 51 640 6 267 5
249 15 223 40 -98 63 -623 41 -913 -17 -219 -46 -434 -87 -655 -55 -289 -62
-325 -93 -530 -30 -190 -55 -404 -65 -545 l-5 -75 56 65 c94 108 258 265 348
332 179 135 330 208 575 280 43 13 45 15 53 63 13 77 12 477 -1 590 -73 606
-266 1124 -595 1595 -80 113 -255 330 -268 330 -4 0 -31 -30 -61 -67z"/>
<path d="M873 4638 c17 -572 153 -1044 440 -1530 265 -447 607 -780 989 -962
114 -55 265 -112 273 -105 2 3 0 36 -5 74 -19 140 -30 355 -30 576 l0 227 -32
13 c-121 49 -479 333 -613 484 -33 37 -70 80 -83 94 -50 56 -166 215 -221 303
-113 180 -309 580 -298 611 1 5 29 -35 62 -89 85 -145 194 -302 303 -438 128
-160 379 -410 523 -520 111 -85 353 -246 370 -246 4 0 10 19 13 43 33 242 69
455 113 655 l18 84 -51 46 c-110 104 -213 192 -289 249 -269 203 -594 370
-940 485 -152 51 -506 148 -538 148 -7 0 -8 -74 -4 -202z"/>
<path d="M3995 3523 c-179 -40 -413 -117 -532 -175 -278 -134 -496 -326 -688
-603 l-49 -70 13 -200 c14 -224 34 -392 48 -406 12 -12 171 12 283 41 197 53
420 162 580 285 198 151 417 432 566 726 l45 88 -59 58 c-67 66 -131 159 -151
221 -14 42 -18 44 -56 35z"/>
<path d="M690 1011 c-131 -42 -223 -120 -283 -239 -152 -304 28 -659 361 -713
185 -30 396 73 484 237 83 153 77 375 -13 519 -64 102 -138 159 -253 194 -87
27 -217 28 -296 2z m248 -241 c159 -72 192 -287 61 -404 -52 -48 -100 -66
-173 -66 -104 0 -188 63 -224 169 -17 50 -14 130 7 176 22 48 97 118 143 132
54 18 139 15 186 -7z"/>
<path d="M783 703 c-12 -2 -40 -21 -63 -41 -87 -78 -71 -210 30 -262 119 -61
250 17 250 147 0 109 -98 179 -217 156z"/>
</g>
</svg>
