<?xml version="1.0" encoding="UTF-8"?>
<svg xmlns="http://www.w3.org/2000/svg" xmlns:xlink="http://www.w3.org/1999/xlink" width="32px" height="32px" viewBox="0 0 32 32" version="1.1">
<g id="surface1">
<path style=" stroke:none;fill-rule:nonzero;fill:rgb(100%,100%,100%);fill-opacity:1;" d="M 8.210938 4.359375 L 23.757812 4.28125 L 23.757812 11.132812 C 23.757812 11.132812 25.621094 11.9375 25.847656 12.085938 C 26.523438 12.53125 27.523438 12.710938 27.523438 14.96875 L 27.523438 25.085938 C 27.523438 26.371094 26.476562 27.414062 25.195312 27.414062 L 6.761719 27.414062 C 5.476562 27.414062 4.433594 26.367188 4.433594 25.085938 L 4.433594 15.53125 C 4.433594 15.363281 4.453125 15.054688 4.433594 14.6875 C 4.394531 13.882812 4.550781 13.089844 5.363281 12.492188 C 5.835938 12.148438 6.441406 11.914062 6.957031 11.683594 C 7.65625 11.367188 8.210938 11.125 8.210938 11.125 Z M 8.210938 4.359375 "/>
<path style=" stroke:none;fill-rule:nonzero;fill:rgb(90.196079%,90.196079%,90.196079%);fill-opacity:1;" d="M 8.210938 12.492188 L 7.003906 13.035156 L 6.992188 13.039062 C 6.484375 13.242188 6.164062 13.429688 5.972656 13.617188 L 8.214844 14.832031 L 8.214844 12.492188 Z M 24.929688 13.023438 L 23.757812 12.5 L 23.757812 14.824219 L 25.960938 13.632812 C 25.757812 13.457031 25.433594 13.273438 24.929688 13.023438 Z M 24.929688 13.023438 "/>
<path style=" stroke:none;fill-rule:nonzero;fill:rgb(2.352941%,95.294118%,100%);fill-opacity:1;" d="M 7.894531 23.550781 L 7.894531 17.523438 C 7.894531 17.351562 7.753906 17.210938 7.582031 17.210938 C 7.410156 17.210938 7.269531 17.351562 7.269531 17.523438 L 7.269531 23.550781 C 7.269531 24.160156 7.765625 24.65625 8.375 24.65625 L 17.710938 24.65625 C 17.882812 24.65625 18.023438 24.515625 18.023438 24.34375 C 18.023438 24.171875 17.882812 24.03125 17.710938 24.03125 L 8.371094 24.03125 C 8.109375 24.027344 7.894531 23.8125 7.894531 23.550781 Z M 7.894531 23.550781 "/>
<path style=" stroke:none;fill-rule:nonzero;fill:rgb(0%,35.686275%,100%);fill-opacity:1;" d="M 9.460938 11.519531 Z M 27.4375 13.679688 C 27.4375 13.683594 27.441406 13.6875 27.441406 13.691406 C 27.441406 13.6875 27.4375 13.679688 27.4375 13.679688 Z M 18.976562 14.859375 C 19.457031 14.59375 19.835938 14.226562 20.070312 13.816406 C 20.148438 13.746094 20.191406 13.65625 20.195312 13.554688 C 20.207031 13.53125 20.21875 13.503906 20.226562 13.476562 L 20.195312 13.476562 C 20.191406 13.265625 20.011719 13.097656 19.796875 13.097656 C 19.589844 13.097656 19.417969 13.253906 19.398438 13.460938 L 19.394531 13.460938 C 19.085938 13.847656 18.675781 14.117188 18.167969 14.3125 C 17.664062 14.507812 17.054688 14.632812 16.351562 14.632812 C 15.617188 14.632812 15.011719 14.488281 14.445312 14.257812 C 13.882812 14.03125 13.414062 13.632812 13.09375 13.125 C 12.78125 12.621094 12.625 12.085938 12.625 11.46875 C 12.625 10.835938 12.785156 10.230469 13.066406 9.648438 C 13.335938 9.074219 13.777344 8.601562 14.328125 8.289062 C 14.882812 7.96875 15.523438 7.804688 16.320312 7.804688 C 17.257812 7.804688 17.992188 8.050781 18.519531 8.53125 C 19.042969 9.011719 19.199219 9.613281 19.199219 10.328125 C 19.199219 10.726562 19.148438 11.113281 18.964844 11.484375 C 18.78125 11.855469 18.601562 12.058594 18.300781 12.28125 C 18.078125 12.449219 17.578125 12.648438 17.433594 12.648438 C 17.386719 12.648438 17.347656 12.628906 17.3125 12.589844 C 17.277344 12.554688 17.261719 12.5 17.261719 12.429688 C 17.273438 12.292969 17.292969 12.160156 17.324219 12.023438 L 17.980469 9.515625 C 18.011719 9.460938 18.039062 9.398438 18.039062 9.332031 L 18.035156 9.3125 L 18.039062 9.300781 L 18.035156 9.300781 L 18.035156 9.296875 C 18.035156 9.085938 17.859375 8.914062 17.648438 8.914062 C 17.542969 8.914062 17.445312 8.953125 17.371094 9.023438 C 17.300781 9.097656 17.257812 9.195312 17.257812 9.296875 L 17.257812 9.332031 C 17.257812 9.355469 17.269531 9.378906 17.273438 9.398438 L 17.234375 9.546875 C 16.984375 9.148438 16.398438 8.90625 15.867188 8.90625 C 15.421875 8.90625 14.753906 9.214844 14.296875 9.914062 C 13.960938 10.445312 13.765625 11.058594 13.742188 11.6875 C 13.722656 12.242188 13.886719 12.730469 14.210938 13.0625 C 14.53125 13.394531 14.929688 13.492188 15.175781 13.492188 C 15.628906 13.492188 16.03125 13.324219 16.378906 12.992188 C 16.414062 13.144531 16.5 13.273438 16.625 13.363281 C 16.746094 13.445312 16.929688 13.492188 17.179688 13.492188 C 18.085938 13.492188 18.925781 13.015625 19.386719 12.378906 C 19.785156 11.835938 20.007812 11.109375 20.007812 10.367188 C 20.007812 9.746094 19.90625 9.171875 19.601562 8.648438 C 19.292969 8.121094 18.898438 7.714844 18.320312 7.429688 C 17.742188 7.148438 17.085938 7.003906 16.339844 7.003906 C 15.464844 7.003906 14.683594 7.179688 14.003906 7.535156 C 13.320312 7.886719 12.785156 8.417969 12.394531 9.121094 C 12 9.828125 11.804688 10.585938 11.804688 11.40625 C 11.796875 12.128906 11.976562 12.835938 12.320312 13.472656 C 12.671875 14.125 13.226562 14.640625 13.902344 14.945312 C 14.613281 15.273438 15.449219 15.433594 16.425781 15.433594 C 17.425781 15.433594 18.277344 15.242188 18.976562 14.859375 Z M 16.5625 11.519531 C 16.445312 11.859375 16.3125 12.117188 16.15625 12.296875 C 16.046875 12.421875 15.933594 12.511719 15.824219 12.570312 C 15.679688 12.652344 15.570312 12.714844 15.398438 12.714844 C 15.175781 12.714844 14.890625 12.628906 14.742188 12.453125 C 14.585938 12.277344 14.511719 12.007812 14.511719 11.636719 C 14.511719 11.363281 14.65625 11.042969 14.765625 10.6875 C 14.875 10.332031 15.039062 10.148438 15.253906 9.957031 C 15.46875 9.761719 15.664062 9.710938 15.917969 9.710938 C 16.15625 9.710938 16.40625 9.777344 16.558594 9.953125 C 16.714844 10.128906 16.8125 10.265625 16.8125 10.59375 C 16.816406 10.882812 16.675781 11.179688 16.5625 11.519531 Z M 16.5625 11.519531 "/>
<path style=" stroke:none;fill-rule:nonzero;fill:rgb(0%,35.686275%,100%);fill-opacity:1;" d="M 27.441406 13.691406 C 27.441406 13.683594 27.4375 13.679688 27.4375 13.679688 C 27.164062 12.734375 26.273438 12.292969 25.476562 11.898438 L 25.460938 11.890625 L 23.757812 11.128906 L 23.757812 4.28125 L 8.210938 4.359375 L 8.210938 11.125 L 6.519531 11.882812 C 5.546875 12.265625 4.433594 12.890625 4.433594 14.304688 L 4.433594 25.085938 C 4.433594 26.367188 5.476562 27.414062 6.757812 27.414062 L 25.195312 27.414062 C 26.476562 27.414062 27.523438 26.367188 27.523438 25.085938 L 27.523438 14.304688 C 27.523438 14.078125 27.492188 13.875 27.441406 13.691406 Z M 23.757812 12.5 L 24.929688 13.023438 C 25.4375 13.273438 25.757812 13.460938 25.960938 13.632812 L 23.757812 14.824219 Z M 9.460938 11.519531 L 9.460938 5.601562 L 22.507812 5.539062 L 22.507812 15.5 L 16.289062 18.867188 C 16.097656 18.96875 15.867188 18.96875 15.675781 18.867188 L 9.460938 15.507812 Z M 8.210938 12.492188 L 8.210938 14.832031 L 5.96875 13.617188 C 6.164062 13.425781 8.210938 12.492188 8.210938 12.492188 Z M 26.273438 25.085938 C 26.273438 25.679688 25.789062 26.164062 25.195312 26.164062 L 6.757812 26.164062 C 6.164062 26.164062 5.683594 25.679688 5.683594 25.085938 L 5.683594 14.882812 L 15.074219 19.96875 C 15.355469 20.121094 15.664062 20.195312 15.976562 20.195312 C 16.289062 20.195312 16.597656 20.121094 16.882812 19.96875 L 26.273438 14.882812 Z M 26.273438 25.085938 "/>
</g>
</svg>
