<?xml version="1.0" encoding="UTF-8"?>
<svg xmlns="http://www.w3.org/2000/svg" xmlns:xlink="http://www.w3.org/1999/xlink" width="32px" height="px" viewBox="0 0 32 32" version="1.1">
<g id="surface1">
<path style=" stroke:none;fill-rule:nonzero;fill:rgb(1.176471%,60.784316%,89.803922%);fill-opacity:1;" d="M 16 3.332031 C 9.003906 3.332031 3.332031 9.003906 3.332031 16 C 3.332031 22.996094 9.003906 28.667969 16 28.667969 C 22.996094 28.667969 28.667969 22.996094 28.667969 16 C 28.667969 9.003906 22.996094 3.332031 16 3.332031 Z M 16 3.332031 "/>
<path style=" stroke:none;fill-rule:nonzero;fill:rgb(100%,100%,100%);fill-opacity:1;" d="M 17.714844 19.355469 L 20.992188 19.355469 L 21.507812 16.027344 L 17.714844 16.027344 L 17.714844 14.207031 C 17.714844 12.824219 18.164062 11.597656 19.460938 11.597656 L 21.539062 11.597656 L 21.539062 8.691406 C 21.175781 8.640625 20.402344 8.535156 18.941406 8.535156 C 15.894531 8.535156 14.105469 10.144531 14.105469 13.8125 L 14.105469 16.027344 L 10.972656 16.027344 L 10.972656 19.355469 L 14.105469 19.355469 L 14.105469 28.511719 C 14.726562 28.601562 15.355469 28.667969 16 28.667969 C 16.582031 28.667969 17.152344 28.613281 17.714844 28.539062 Z M 17.714844 19.355469 "/>
</g>
</svg>
