<?xml version="1.0" encoding="UTF-8"?>
<svg xmlns="http://www.w3.org/2000/svg" xmlns:xlink="http://www.w3.org/1999/xlink" width="32px" height="px" viewBox="0 0 32 32" version="1.1">
<g id="surface1">
<path style=" stroke:none;fill-rule:nonzero;fill:rgb(1.176471%,66.274512%,95.686275%);fill-opacity:1;" d="M 28 8.285156 C 27.117188 8.675781 26.167969 8.9375 25.167969 9.0625 C 26.1875 8.457031 26.96875 7.492188 27.335938 6.355469 C 26.382812 6.914062 25.328125 7.324219 24.207031 7.539062 C 23.3125 6.589844 22.035156 6 20.617188 6 C 17.898438 6 15.691406 8.183594 15.691406 10.878906 C 15.691406 11.261719 15.738281 11.632812 15.820312 11.992188 C 11.730469 11.789062 8.101562 9.84375 5.671875 6.890625 C 5.246094 7.613281 5.003906 8.457031 5.003906 9.347656 C 5.003906 11.042969 5.871094 12.535156 7.195312 13.410156 C 6.386719 13.386719 5.628906 13.164062 4.960938 12.800781 C 4.960938 12.816406 4.960938 12.839844 4.960938 12.859375 C 4.960938 15.226562 6.660156 17.199219 8.910156 17.648438 C 8.5 17.761719 8.066406 17.824219 7.617188 17.824219 C 7.300781 17.824219 6.988281 17.785156 6.6875 17.734375 C 7.316406 19.667969 9.132812 21.082031 11.289062 21.125 C 9.601562 22.429688 7.480469 23.210938 5.171875 23.210938 C 4.773438 23.210938 4.382812 23.191406 3.996094 23.144531 C 6.179688 24.523438 8.769531 25.332031 11.546875 25.332031 C 20.605469 25.332031 25.558594 17.894531 25.558594 11.445312 C 25.558594 11.234375 25.550781 11.023438 25.542969 10.8125 C 26.507812 10.132812 27.34375 9.269531 28 8.285156 "/>
</g>
</svg>
