<?xml version="1.0" encoding="UTF-8"?>
<svg xmlns="http://www.w3.org/2000/svg" xmlns:xlink="http://www.w3.org/1999/xlink" width="32px" height="px" viewBox="0 0 32 32" version="1.1">
<g id="surface1">
<path style=" stroke:none;fill-rule:nonzero;fill:rgb(18.82353%,30.980393%,99.607843%);fill-opacity:1;" d="M 27.78125 8.988281 C 27.511719 9.160156 27.132812 9.320312 26.972656 9.5 C 26.914062 9.558594 26.878906 9.625 26.894531 9.691406 L 26.894531 10.378906 L 26.691406 11.054688 L 26.492188 11.71875 L 26.273438 12.453125 L 25.820312 13.953125 L 25.378906 15.433594 L 25.046875 16.546875 C 25.046875 16.71875 25.039062 16.894531 25.027344 17.058594 C 24.980469 17.699219 24.847656 18.3125 24.632812 18.886719 C 24.507812 19.238281 24.351562 19.578125 24.167969 19.898438 C 24.101562 20.027344 24.019531 20.152344 23.941406 20.273438 C 23.671875 20.691406 23.351562 21.078125 23 21.421875 C 22.726562 21.691406 22.425781 21.945312 22.101562 22.160156 C 22.101562 22.160156 22.101562 22.160156 22.09375 22.160156 C 22.039062 22.207031 21.980469 22.246094 21.914062 22.28125 C 21.707031 22.421875 21.488281 22.539062 21.261719 22.648438 C 21.105469 22.726562 20.953125 22.792969 20.792969 22.851562 C 20.761719 22.875 20.71875 22.886719 20.6875 22.898438 C 20.308594 23.078125 19.867188 23.199219 19.425781 23.261719 C 19.398438 23.265625 19.378906 23.265625 19.351562 23.273438 C 19.085938 23.320312 18.828125 23.359375 18.558594 23.378906 C 18.441406 23.394531 18.3125 23.398438 18.191406 23.398438 L 17.71875 23.375 L 15.441406 23.253906 C 15.441406 23.246094 15.433594 23.253906 15.433594 23.253906 L 14.285156 23.191406 C 14.199219 23.191406 14.105469 23.191406 14.019531 23.1875 C 13.660156 23.171875 13.3125 23.132812 12.964844 23.058594 C 12.960938 23.058594 12.960938 23.058594 12.960938 23.058594 C 12.328125 22.941406 11.71875 22.726562 11.152344 22.441406 C 10.839844 22.28125 10.535156 22.101562 10.246094 21.894531 C 10.125 21.808594 10.011719 21.714844 9.898438 21.613281 C 9.578125 21.347656 9.292969 21.058594 9.027344 20.765625 C 8.988281 20.726562 8.953125 20.6875 8.921875 20.648438 C 8.878906 20.605469 8.839844 20.558594 8.808594 20.519531 C 8.554688 20.199219 8.339844 19.875 8.167969 19.527344 C 8.007812 19.21875 7.878906 18.894531 7.78125 18.535156 C 7.738281 18.40625 7.707031 18.285156 7.679688 18.152344 C 7.671875 18.148438 7.667969 18.132812 7.667969 18.121094 C 7.601562 17.847656 7.539062 17.558594 7.507812 17.273438 C 7.464844 17.054688 7.445312 16.832031 7.445312 16.605469 C 7.433594 16.519531 7.433594 16.425781 7.433594 16.339844 L 8.707031 14.375 L 9.953125 12.453125 L 10.519531 11.578125 L 11.035156 10.792969 L 11.207031 10.519531 L 11.207031 9.832031 C 11.21875 9.679688 11.226562 9.519531 11.21875 9.375 C 11.214844 8.90625 11.121094 8.453125 10.964844 8.019531 C 10.820312 7.558594 10.613281 7.125 10.398438 6.726562 C 10.148438 6.265625 9.878906 5.851562 9.660156 5.480469 C 9.332031 4.933594 9.105469 4.488281 9.167969 4.171875 C 9.648438 4.058594 10.152344 4 10.667969 4 L 21.332031 4 C 24.121094 4 26.519531 5.734375 27.511719 8.171875 C 27.621094 8.433594 27.714844 8.707031 27.78125 8.988281 Z M 27.78125 8.988281 "/>
<path style=" stroke:none;fill-rule:nonzero;fill:rgb(28.627452%,15.686275%,95.686275%);fill-opacity:1;" d="M 28 10.667969 L 28 10.847656 L 27.078125 11.378906 L 26.492188 11.71875 L 25.847656 12.09375 L 24.554688 12.847656 L 23.285156 13.578125 L 21.992188 14.328125 L 21.480469 14.625 C 21.480469 14.945312 21.398438 15.238281 21.253906 15.507812 C 21.046875 15.894531 20.699219 16.214844 20.261719 16.488281 C 19.8125 16.761719 19.265625 16.980469 18.652344 17.140625 C 18.652344 17.140625 18.652344 17.132812 18.648438 17.140625 C 16.273438 17.753906 13.035156 17.472656 11.460938 16.300781 C 11.019531 15.972656 10.714844 15.574219 10.578125 15.113281 C 10.539062 14.960938 10.519531 14.792969 10.519531 14.625 L 10.519531 9.832031 C 10.527344 9.734375 10.460938 9.632812 10.339844 9.535156 C 9.980469 9.246094 9.132812 8.972656 8.1875 8.699219 C 7.445312 8.492188 6.652344 8.285156 5.988281 8.085938 C 5.460938 7.925781 5.011719 7.765625 4.746094 7.613281 C 4.867188 7.378906 5.007812 7.148438 5.152344 6.925781 C 6.085938 5.558594 7.511719 4.554688 9.167969 4.171875 C 9.648438 4.058594 10.152344 4 10.667969 4 L 17.867188 4 C 21.445312 4.625 24.746094 6.085938 27.511719 8.171875 C 27.621094 8.433594 27.714844 8.707031 27.78125 8.988281 C 27.898438 9.425781 27.972656 9.878906 27.992188 10.351562 C 28 10.453125 28 10.558594 28 10.667969 Z M 28 10.667969 "/>
<path style=" stroke:none;fill-rule:nonzero;fill:rgb(38.431373%,0%,91.764706%);fill-opacity:1;" d="M 28 10.667969 L 28 13.605469 L 27.851562 14.058594 L 27.351562 15.613281 L 26.832031 17.214844 L 26.558594 18.066406 L 26.308594 18.859375 L 26.058594 19.613281 L 25.820312 20.359375 L 25.691406 20.753906 L 25.527344 21.273438 C 25.527344 21.78125 25.511719 22.226562 25.480469 22.605469 C 25.472656 22.648438 25.464844 22.6875 25.464844 22.726562 C 25.425781 23.078125 25.375 23.378906 25.285156 23.632812 C 25.28125 23.671875 25.265625 23.714844 25.253906 23.746094 C 25.078125 24.226562 24.820312 24.535156 24.433594 24.734375 C 24.339844 24.785156 24.234375 24.828125 24.121094 24.867188 C 23.765625 24.988281 23.320312 25.046875 22.773438 25.078125 C 22.375 25.105469 21.914062 25.113281 21.394531 25.113281 L 20.933594 25.113281 L 20.140625 25.078125 L 20 25.074219 L 18.554688 25.011719 L 17.085938 24.953125 L 12.253906 24.753906 L 11 24.699219 L 10.828125 24.699219 C 10.308594 24.691406 9.859375 24.660156 9.472656 24.605469 C 8.914062 24.519531 8.480469 24.375 8.152344 24.152344 C 7.6875 23.851562 7.414062 23.414062 7.253906 22.800781 C 7.214844 22.652344 7.179688 22.5 7.160156 22.332031 C 7.09375 21.945312 7.058594 21.5 7.039062 21 C 7.039062 20.898438 7.039062 20.800781 7.035156 20.691406 C 7.027344 20.6875 7.035156 20.6875 7.035156 20.6875 L 7.035156 20.300781 C 7.027344 20.105469 7.027344 19.90625 7.027344 19.699219 L 7.058594 18.625 L 7.078125 17.859375 L 7.105469 16.964844 L 7.105469 16.839844 L 7.199219 13.558594 L 7.246094 12.019531 L 7.285156 10.507812 L 7.300781 10.105469 C 7.300781 9.898438 6.601562 9.78125 5.820312 9.679688 C 5.199219 9.601562 4.519531 9.527344 4.113281 9.433594 C 4.148438 9.28125 4.179688 9.125 4.21875 8.980469 C 4.339844 8.5 4.519531 8.046875 4.746094 7.613281 C 4.867188 7.378906 5.007812 7.148438 5.152344 6.925781 C 6.59375 6.292969 8.09375 5.800781 9.660156 5.480469 C 11.035156 5.191406 12.464844 5.039062 13.945312 5.039062 C 18.851562 5.039062 23.386719 6.699219 26.972656 9.5 C 27.320312 9.765625 27.660156 10.054688 27.992188 10.351562 C 28 10.453125 28 10.558594 28 10.667969 Z M 28 10.667969 "/>
<path style=" stroke:none;fill-rule:nonzero;fill:rgb(40.392157%,22.745098%,71.764708%);fill-opacity:1;" d="M 28 12.246094 L 28 15.273438 L 27.632812 15.980469 L 26.933594 17.347656 L 26.558594 18.066406 L 26.21875 18.726562 L 26.074219 19.011719 C 26.074219 19.21875 26.074219 19.421875 26.058594 19.613281 C 26.058594 19.898438 26.046875 20.171875 26.027344 20.425781 C 26 20.726562 25.960938 21 25.921875 21.253906 C 25.820312 21.78125 25.679688 22.234375 25.480469 22.605469 C 25.453125 22.652344 25.425781 22.699219 25.398438 22.738281 C 25.328125 22.859375 25.238281 22.972656 25.148438 23.078125 C 25.027344 23.226562 24.894531 23.351562 24.738281 23.460938 C 24.511719 23.632812 24.246094 23.773438 23.941406 23.878906 C 23.558594 24.019531 23.121094 24.113281 22.601562 24.167969 C 22.261719 24.199219 21.886719 24.21875 21.480469 24.21875 L 21.199219 24.234375 L 19.8125 24.3125 L 19.808594 24.3125 L 18.332031 24.398438 L 16.832031 24.488281 L 14.765625 24.605469 L 12.253906 24.753906 L 11.886719 24.773438 C 11.546875 24.773438 11.226562 24.753906 10.921875 24.714844 C 10.886719 24.707031 10.859375 24.699219 10.828125 24.699219 C 10.375 24.625 9.960938 24.507812 9.585938 24.339844 C 9.132812 24.140625 8.738281 23.875 8.40625 23.554688 C 8.113281 23.265625 7.859375 22.941406 7.652344 22.574219 C 7.605469 22.488281 7.558594 22.40625 7.519531 22.3125 C 7.320312 21.921875 7.160156 21.480469 7.039062 21 C 7.019531 20.921875 7 20.832031 6.988281 20.746094 C 6.945312 20.59375 6.914062 20.433594 6.894531 20.265625 C 6.820312 19.839844 6.78125 19.386719 6.761719 18.914062 L 6.761719 18.90625 C 6.753906 18.714844 6.746094 18.527344 6.746094 18.328125 L 6.421875 17.546875 L 6.375 17.425781 L 6.332031 17.328125 L 5.832031 16.132812 L 5.753906 15.941406 L 5.273438 14.785156 L 4.738281 13.5 C 4.738281 13.5 4.738281 13.5 4.734375 13.5 L 4.191406 12.199219 L 4 11.726562 L 4 10.667969 C 4 10.246094 4.039062 9.832031 4.113281 9.433594 C 4.148438 9.28125 4.179688 9.125 4.21875 8.980469 C 4.785156 8.652344 5.378906 8.351562 5.988281 8.085938 C 7.375 7.464844 8.859375 7.007812 10.398438 6.726562 C 11.546875 6.519531 12.738281 6.40625 13.945312 6.40625 C 18.820312 6.40625 23.238281 8.171875 26.691406 11.054688 C 26.828125 11.160156 26.953125 11.265625 27.078125 11.378906 C 27.394531 11.652344 27.699219 11.941406 28 12.246094 Z M 28 12.246094 "/>
<path style=" stroke:none;fill-rule:nonzero;fill:rgb(55.686277%,14.117648%,66.666669%);fill-opacity:1;" d="M 28 14.234375 L 28 17.660156 L 27.621094 18.453125 L 26.898438 19.953125 L 26.894531 19.972656 C 26.894531 20.261719 26.878906 20.519531 26.859375 20.753906 C 26.792969 21.519531 26.605469 22.007812 26.300781 22.308594 C 26.078125 22.535156 25.808594 22.660156 25.464844 22.726562 C 25.445312 22.734375 25.421875 22.734375 25.398438 22.738281 C 25.292969 22.761719 25.179688 22.773438 25.058594 22.773438 C 24.648438 22.8125 24.160156 22.785156 23.601562 22.746094 C 23.539062 22.746094 23.472656 22.738281 23.40625 22.734375 C 23 22.707031 22.566406 22.679688 22.085938 22.660156 C 21.828125 22.652344 21.554688 22.648438 21.273438 22.648438 L 21.261719 22.648438 L 20.585938 22.699219 L 20.578125 22.699219 L 19.066406 22.808594 L 17.085938 22.960938 L 15.066406 23.105469 L 14.019531 23.1875 L 12.988281 23.261719 C 12.808594 23.261719 12.632812 23.261719 12.460938 23.253906 C 12.460938 23.253906 12.453125 23.246094 12.453125 23.253906 C 11.699219 23.238281 11.027344 23.191406 10.425781 23.078125 C 9.875 22.988281 9.386719 22.839844 8.972656 22.621094 C 8.546875 22.414062 8.191406 22.121094 7.90625 21.746094 C 7.632812 21.378906 7.433594 20.921875 7.308594 20.367188 C 7.308594 20.359375 7.308594 20.359375 7.308594 20.359375 C 7.214844 19.914062 7.160156 19.394531 7.160156 18.808594 L 7.058594 18.625 L 6.464844 17.566406 L 6.378906 17.421875 L 6.332031 17.328125 L 5.714844 16.226562 L 5.40625 15.671875 L 5.019531 14.988281 L 4.351562 13.792969 L 4 13.167969 L 4 10.714844 C 4.585938 10.328125 5.191406 9.988281 5.820312 9.679688 C 6.578125 9.292969 7.367188 8.964844 8.1875 8.699219 C 9.078125 8.40625 10.011719 8.171875 10.964844 8.019531 C 11.933594 7.859375 12.925781 7.78125 13.945312 7.78125 C 18.480469 7.78125 22.640625 9.398438 25.847656 12.09375 C 25.992188 12.207031 26.132812 12.332031 26.273438 12.453125 C 26.832031 12.953125 27.367188 13.492188 27.851562 14.058594 C 27.90625 14.121094 27.960938 14.171875 28 14.234375 Z M 28 14.234375 "/>
<path style=" stroke:none;fill-rule:nonzero;fill:rgb(76.078433%,9.411765%,35.686275%);fill-opacity:1;" d="M 28 16.472656 L 28 21.292969 C 27.839844 21.199219 27.621094 21.085938 27.347656 20.964844 C 27.199219 20.894531 27.035156 20.820312 26.859375 20.753906 C 26.605469 20.640625 26.332031 20.535156 26.027344 20.425781 C 25.960938 20.398438 25.894531 20.378906 25.820312 20.359375 C 25.699219 20.3125 25.574219 20.273438 25.445312 20.234375 C 25.054688 20.113281 24.621094 20 24.167969 19.898438 C 23.992188 19.867188 23.8125 19.832031 23.632812 19.808594 C 23.054688 19.707031 22.433594 19.648438 21.785156 19.640625 C 21.734375 19.632812 21.671875 19.632812 21.621094 19.632812 L 19.90625 19.648438 L 17.574219 19.660156 L 17.566406 19.660156 L 12.574219 19.699219 C 10.988281 19.699219 10.011719 20.078125 9.425781 20.234375 C 9.425781 20.234375 9.421875 20.234375 9.421875 20.238281 C 8.800781 20.398438 8.605469 20.300781 8.554688 19.214844 C 8.539062 18.914062 8.535156 18.527344 8.535156 18.054688 L 8.160156 17.765625 L 7.507812 17.273438 L 7.105469 16.964844 L 7.027344 16.90625 L 5.921875 16.066406 L 5.753906 15.941406 L 5.40625 15.671875 L 4.765625 15.191406 L 4 14.605469 L 4 12.339844 C 4.066406 12.285156 4.125 12.238281 4.191406 12.199219 C 5.160156 11.535156 6.191406 10.964844 7.285156 10.507812 C 8.261719 10.09375 9.285156 9.765625 10.339844 9.535156 C 10.625 9.472656 10.921875 9.414062 11.21875 9.375 C 12.105469 9.21875 13.019531 9.148438 13.945312 9.148438 C 17.953125 9.148438 21.632812 10.539062 24.554688 12.847656 C 24.992188 13.191406 25.421875 13.558594 25.820312 13.953125 C 26.367188 14.472656 26.878906 15.027344 27.351562 15.613281 C 27.445312 15.734375 27.539062 15.851562 27.632812 15.980469 C 27.761719 16.140625 27.878906 16.308594 28 16.472656 Z M 28 16.472656 "/>
<path style=" stroke:none;fill-rule:nonzero;fill:rgb(84.705883%,10.588235%,37.64706%);fill-opacity:1;" d="M 28 19.148438 L 28 21.332031 C 28 21.765625 27.960938 22.191406 27.878906 22.605469 C 27.761719 23.21875 27.554688 23.808594 27.273438 24.351562 C 27.125 24.386719 26.960938 24.386719 26.773438 24.359375 C 26.351562 24.285156 25.859375 24.066406 25.328125 23.78125 C 25.300781 23.773438 25.273438 23.761719 25.253906 23.746094 C 25.085938 23.660156 24.914062 23.566406 24.738281 23.460938 C 24.386719 23.265625 24.011719 23.054688 23.640625 22.851562 C 23.558594 22.8125 23.480469 22.773438 23.40625 22.734375 C 22.980469 22.511719 22.539062 22.3125 22.101562 22.160156 C 22.101562 22.160156 22.101562 22.160156 22.09375 22.160156 C 22 22.125 21.898438 22.09375 21.800781 22.066406 C 21.421875 21.960938 21.035156 21.894531 20.660156 21.894531 L 19.925781 21.679688 L 16.679688 20.738281 C 16.679688 20.738281 16.679688 20.738281 16.671875 20.738281 L 14.679688 20.160156 L 14.671875 20.160156 L 13.808594 19.90625 C 11.300781 19.90625 9.761719 20.972656 9.011719 20.566406 C 8.71875 20.414062 8.546875 20.027344 8.488281 19.265625 C 8.464844 19.054688 8.460938 18.8125 8.460938 18.535156 L 7.679688 18.152344 L 7.648438 18.140625 L 7.640625 18.140625 L 7.078125 17.859375 L 6.464844 17.566406 L 6.421875 17.546875 L 6.308594 17.488281 L 5 16.851562 L 4 16.367188 L 4 14.078125 C 4.113281 13.980469 4.234375 13.886719 4.351562 13.792969 C 4.480469 13.691406 4.605469 13.601562 4.734375 13.5 C 4.738281 13.5 4.738281 13.5 4.738281 13.5 C 5.527344 12.933594 6.359375 12.433594 7.246094 12.019531 C 8.28125 11.527344 9.378906 11.148438 10.519531 10.898438 C 10.6875 10.859375 10.859375 10.820312 11.035156 10.792969 C 11.980469 10.613281 12.953125 10.519531 13.945312 10.519531 C 17.460938 10.519531 20.6875 11.660156 23.285156 13.578125 C 24.039062 14.140625 24.738281 14.761719 25.378906 15.433594 C 25.90625 15.988281 26.394531 16.585938 26.832031 17.214844 C 26.867188 17.261719 26.898438 17.308594 26.933594 17.347656 C 27.179688 17.707031 27.40625 18.074219 27.621094 18.453125 C 27.761719 18.679688 27.878906 18.914062 28 19.148438 Z M 28 19.148438 "/>
<path style=" stroke:none;fill-rule:nonzero;fill:rgb(96.078432%,0%,34.117648%);fill-opacity:1;" d="M 27.878906 22.605469 C 27.761719 23.21875 27.554688 23.808594 27.273438 24.351562 C 27.148438 24.601562 27.007812 24.832031 26.851562 25.058594 C 26.761719 25.199219 26.660156 25.332031 26.558594 25.460938 C 26.320312 25.367188 25.964844 25.234375 25.535156 25.085938 C 25.535156 25.085938 25.535156 25.085938 25.535156 25.078125 C 25.207031 24.964844 24.832031 24.847656 24.433594 24.734375 C 24.320312 24.699219 24.207031 24.667969 24.085938 24.632812 C 23.613281 24.507812 23.121094 24.394531 22.640625 24.328125 C 22.238281 24.261719 21.847656 24.21875 21.480469 24.21875 L 21.171875 24.132812 L 21.167969 24.132812 L 19.554688 23.667969 L 18.558594 23.378906 L 17.453125 23.058594 L 17.445312 23.058594 L 17.085938 22.960938 L 12.734375 21.707031 L 11.480469 21.347656 L 10.546875 21.125 L 9.027344 20.765625 L 8.839844 20.71875 C 8.839844 20.71875 8.839844 20.71875 8.832031 20.71875 L 7.308594 20.367188 C 7.308594 20.359375 7.308594 20.359375 7.308594 20.359375 L 7.035156 20.300781 L 6.894531 20.265625 L 5.78125 20.007812 L 5.652344 19.972656 L 4.707031 19.191406 L 4 18.601562 L 4 15.878906 C 4.246094 15.640625 4.5 15.414062 4.765625 15.191406 C 4.847656 15.121094 4.933594 15.054688 5.019531 14.988281 C 5.101562 14.921875 5.1875 14.851562 5.273438 14.785156 C 5.878906 14.328125 6.519531 13.914062 7.199219 13.558594 C 8.066406 13.09375 8.988281 12.71875 9.953125 12.453125 C 10.140625 12.394531 10.328125 12.339844 10.519531 12.300781 C 11.613281 12.027344 12.761719 11.886719 13.945312 11.886719 C 16.925781 11.886719 19.699219 12.785156 21.992188 14.328125 C 23.132812 15.09375 24.160156 16.011719 25.027344 17.058594 C 25.464844 17.585938 25.867188 18.140625 26.21875 18.726562 C 26.253906 18.773438 26.28125 18.8125 26.308594 18.859375 C 26.519531 19.214844 26.71875 19.578125 26.898438 19.953125 C 27.066406 20.285156 27.214844 20.621094 27.347656 20.964844 C 27.558594 21.5 27.734375 22.046875 27.878906 22.605469 Z M 27.878906 22.605469 "/>
<path style=" stroke:none;fill-rule:nonzero;fill:rgb(100%,9.019608%,26.666668%);fill-opacity:1;" d="M 26.851562 25.058594 C 26.761719 25.199219 26.660156 25.332031 26.558594 25.460938 C 26.265625 25.828125 25.945312 26.160156 25.585938 26.453125 C 25.273438 26.714844 24.941406 26.945312 24.585938 27.148438 C 24.453125 27.113281 24.320312 27.074219 24.179688 27.019531 C 23.738281 26.867188 23.28125 26.613281 22.851562 26.347656 C 22.214844 25.941406 21.660156 25.5 21.414062 25.300781 C 21.320312 25.21875 21.273438 25.179688 21.273438 25.179688 L 20.140625 25.078125 L 20 25.066406 L 18.535156 24.941406 L 17.011719 24.808594 L 14.765625 24.605469 L 11.207031 24.292969 L 11.191406 24.285156 L 9.941406 23.679688 L 8.671875 23.066406 L 7.652344 22.574219 L 7.433594 22.464844 L 7.160156 22.332031 L 6.214844 21.875 L 4.953125 21.265625 L 4.558594 21.074219 L 4 20.898438 L 4 17.921875 C 4.3125 17.546875 4.648438 17.191406 5 16.851562 C 5.226562 16.640625 5.464844 16.425781 5.714844 16.226562 C 5.753906 16.191406 5.792969 16.160156 5.832031 16.132812 C 5.859375 16.101562 5.894531 16.078125 5.921875 16.066406 C 6.3125 15.746094 6.726562 15.460938 7.152344 15.199219 C 7.648438 14.886719 8.167969 14.605469 8.707031 14.375 C 9.285156 14.113281 9.894531 13.894531 10.519531 13.726562 C 11.605469 13.421875 12.761719 13.261719 13.945312 13.261719 C 16.667969 13.261719 19.179688 14.085938 21.253906 15.507812 C 22.578125 16.414062 23.726562 17.558594 24.632812 18.886719 C 24.933594 19.3125 25.199219 19.765625 25.445312 20.234375 C 25.535156 20.40625 25.621094 20.578125 25.691406 20.753906 C 25.773438 20.921875 25.847656 21.085938 25.921875 21.253906 C 26.058594 21.601562 26.1875 21.945312 26.300781 22.308594 C 26.511719 22.972656 26.671875 23.652344 26.773438 24.359375 C 26.808594 24.59375 26.832031 24.828125 26.851562 25.058594 Z M 26.851562 25.058594 "/>
<path style=" stroke:none;fill-rule:nonzero;fill:rgb(100%,34.117648%,13.333334%);fill-opacity:1;" d="M 25.59375 26.28125 C 25.59375 26.332031 25.59375 26.394531 25.585938 26.453125 C 25.273438 26.714844 24.941406 26.945312 24.585938 27.148438 C 24.441406 27.226562 24.292969 27.308594 24.140625 27.375 C 23.988281 27.445312 23.832031 27.511719 23.671875 27.574219 C 23.445312 27.453125 23.140625 27.308594 22.8125 27.167969 C 22.351562 26.960938 21.851562 26.773438 21.464844 26.714844 C 21.375 26.691406 21.285156 26.6875 21.207031 26.6875 L 20.113281 26.546875 L 20.101562 26.546875 L 18.738281 26.367188 L 17.367188 26.1875 L 16.726562 26.105469 L 11.6875 25.453125 C 11.359375 25.453125 11.011719 25.433594 10.652344 25.386719 C 10.214844 25.347656 9.753906 25.28125 9.292969 25.1875 C 8.839844 25.105469 8.378906 25 7.941406 24.886719 C 7.480469 24.78125 7.027344 24.652344 6.605469 24.535156 C 6.121094 24.386719 5.667969 24.246094 5.285156 24.121094 C 4.972656 24.019531 4.707031 23.925781 4.5 23.851562 C 4.378906 23.566406 4.28125 23.265625 4.207031 22.960938 C 4.066406 22.441406 4 21.894531 4 21.332031 L 4 20.21875 C 4.214844 19.867188 4.445312 19.519531 4.707031 19.191406 C 5.179688 18.566406 5.71875 17.992188 6.308594 17.488281 C 6.328125 17.460938 6.351562 17.441406 6.375 17.425781 L 6.378906 17.421875 C 6.585938 17.234375 6.800781 17.066406 7.027344 16.90625 C 7.054688 16.878906 7.078125 16.859375 7.105469 16.839844 C 7.214844 16.761719 7.328125 16.679688 7.445312 16.605469 C 8.398438 15.960938 9.453125 15.453125 10.578125 15.113281 C 11.648438 14.792969 12.773438 14.625 13.945312 14.625 C 16.273438 14.625 18.445312 15.3125 20.261719 16.488281 C 21.601562 17.347656 22.753906 18.480469 23.632812 19.808594 C 23.738281 19.960938 23.839844 20.113281 23.941406 20.273438 C 24.398438 21.054688 24.78125 21.894531 25.058594 22.773438 C 25.09375 22.875 25.121094 22.972656 25.148438 23.078125 C 25.199219 23.261719 25.246094 23.445312 25.285156 23.632812 C 25.300781 23.679688 25.3125 23.726562 25.328125 23.78125 C 25.421875 24.199219 25.488281 24.640625 25.535156 25.078125 C 25.535156 25.085938 25.535156 25.085938 25.535156 25.085938 C 25.574219 25.480469 25.59375 25.878906 25.59375 26.28125 Z M 25.59375 26.28125 "/>
<path style=" stroke:none;fill-rule:nonzero;fill:rgb(100%,43.529412%,0%);fill-opacity:1;" d="M 24.21875 26.28125 C 24.21875 26.511719 24.207031 26.765625 24.179688 27.019531 C 24.167969 27.140625 24.152344 27.261719 24.140625 27.375 C 23.988281 27.445312 23.832031 27.511719 23.671875 27.574219 C 23.375 27.6875 23.066406 27.78125 22.753906 27.847656 C 22.539062 27.894531 22.320312 27.933594 22.101562 27.953125 L 22.09375 27.953125 C 21.886719 27.828125 21.648438 27.671875 21.398438 27.5 C 20.953125 27.1875 20.488281 26.832031 20.113281 26.546875 C 20.105469 26.539062 20.105469 26.539062 20.101562 26.535156 C 19.707031 26.234375 19.425781 26.007812 19.425781 26.007812 L 18.71875 26.035156 L 17.359375 26.078125 L 16.726562 26.105469 L 14.179688 26.199219 L 12.027344 26.28125 C 11.886719 26.285156 11.71875 26.285156 11.511719 26.28125 L 11.507812 26.28125 C 11.226562 26.273438 10.894531 26.253906 10.527344 26.21875 C 10.101562 26.1875 9.632812 26.148438 9.160156 26.101562 C 8.699219 26.046875 8.234375 25.992188 7.785156 25.941406 C 7.292969 25.886719 6.828125 25.828125 6.425781 25.773438 C 6.113281 25.734375 5.839844 25.699219 5.621094 25.671875 C 5.433594 25.460938 5.265625 25.238281 5.105469 25 C 4.867188 24.640625 4.660156 24.261719 4.5 23.851562 C 4.378906 23.566406 4.28125 23.265625 4.207031 22.960938 C 4.398438 22.367188 4.652344 21.808594 4.953125 21.265625 C 5.191406 20.828125 5.472656 20.40625 5.78125 20.007812 C 6.078125 19.613281 6.40625 19.246094 6.761719 18.914062 L 6.761719 18.90625 C 6.859375 18.808594 6.960938 18.714844 7.058594 18.625 C 7.246094 18.453125 7.441406 18.292969 7.640625 18.140625 L 7.648438 18.140625 C 7.652344 18.125 7.660156 18.125 7.667969 18.121094 C 7.828125 17.992188 7.992188 17.878906 8.160156 17.765625 C 9.148438 17.09375 10.261719 16.59375 11.460938 16.300781 C 12.253906 16.105469 13.085938 16 13.945312 16 C 15.640625 16 17.238281 16.40625 18.648438 17.140625 L 18.652344 17.140625 C 19.859375 17.761719 20.925781 18.613281 21.785156 19.640625 C 22.261719 20.1875 22.667969 20.785156 23 21.421875 C 23.234375 21.847656 23.433594 22.292969 23.601562 22.746094 C 23.613281 22.785156 23.625 22.820312 23.640625 22.851562 C 23.753906 23.1875 23.851562 23.535156 23.941406 23.878906 C 24 24.125 24.046875 24.378906 24.085938 24.632812 C 24.101562 24.714844 24.113281 24.785156 24.121094 24.867188 C 24.1875 25.328125 24.21875 25.800781 24.21875 26.28125 Z M 24.21875 26.28125 "/>
<path style=" stroke:none;fill-rule:nonzero;fill:rgb(100%,59.607846%,0%);fill-opacity:1;" d="M 22.851562 26.28125 L 22.851562 26.347656 C 22.851562 26.574219 22.832031 26.859375 22.8125 27.167969 C 22.792969 27.394531 22.773438 27.625 22.753906 27.847656 C 22.539062 27.894531 22.320312 27.933594 22.101562 27.953125 L 22.09375 27.953125 C 21.839844 27.988281 21.59375 28 21.332031 28 L 20.167969 28 L 19.914062 27.925781 L 18.601562 27.527344 L 17.265625 27.125 L 14.179688 26.199219 L 12.847656 25.800781 C 12.847656 25.800781 12.292969 26.019531 11.511719 26.28125 L 11.507812 26.28125 C 11.207031 26.378906 10.878906 26.488281 10.535156 26.59375 C 10.101562 26.71875 9.640625 26.847656 9.1875 26.945312 C 8.71875 27.054688 8.261719 27.132812 7.847656 27.167969 C 7.71875 27.179688 7.59375 27.1875 7.480469 27.1875 C 7.105469 26.980469 6.746094 26.734375 6.421875 26.460938 C 6.132812 26.21875 5.867188 25.960938 5.621094 25.671875 C 5.433594 25.460938 5.265625 25.238281 5.105469 25 C 5.152344 24.699219 5.207031 24.40625 5.285156 24.121094 C 5.488281 23.328125 5.800781 22.566406 6.214844 21.875 C 6.441406 21.480469 6.691406 21.101562 6.988281 20.746094 C 6.992188 20.726562 7.011719 20.707031 7.035156 20.691406 C 7.027344 20.6875 7.035156 20.6875 7.035156 20.6875 C 7.121094 20.574219 7.214844 20.464844 7.308594 20.367188 C 7.308594 20.359375 7.308594 20.359375 7.308594 20.359375 C 7.578125 20.066406 7.859375 19.785156 8.167969 19.527344 C 8.273438 19.441406 8.375 19.351562 8.488281 19.265625 C 8.507812 19.246094 8.527344 19.234375 8.554688 19.214844 C 10.054688 18.066406 11.925781 17.375 13.945312 17.375 C 16.238281 17.375 18.328125 18.234375 19.90625 19.648438 C 20.667969 20.332031 21.3125 21.152344 21.800781 22.066406 C 21.839844 22.132812 21.878906 22.207031 21.914062 22.28125 C 21.972656 22.398438 22.035156 22.527344 22.085938 22.660156 C 22.308594 23.140625 22.480469 23.648438 22.601562 24.167969 C 22.613281 24.21875 22.625 24.273438 22.640625 24.328125 C 22.691406 24.574219 22.738281 24.828125 22.773438 25.078125 C 22.828125 25.472656 22.851562 25.875 22.851562 26.28125 Z M 22.851562 26.28125 "/>
<path style=" stroke:none;fill-rule:nonzero;fill:rgb(100%,75.686276%,2.745098%);fill-opacity:1;" d="M 21.480469 26.28125 C 21.480469 26.414062 21.472656 26.558594 21.464844 26.714844 C 21.453125 26.960938 21.433594 27.226562 21.398438 27.5 C 21.386719 27.667969 21.359375 27.832031 21.332031 28 L 17.679688 28 L 16.972656 27.886719 L 14.214844 27.445312 L 13.820312 27.386719 L 12.921875 27.238281 C 12.527344 27.238281 11.671875 27.414062 10.773438 27.578125 C 10.300781 27.667969 9.820312 27.761719 9.386719 27.820312 C 9.332031 27.828125 9.28125 27.832031 9.234375 27.839844 L 9.226562 27.839844 C 8.761719 27.738281 8.308594 27.585938 7.878906 27.386719 C 7.746094 27.328125 7.613281 27.261719 7.480469 27.1875 C 7.105469 26.980469 6.746094 26.734375 6.421875 26.460938 C 6.414062 26.378906 6.40625 26.3125 6.40625 26.28125 C 6.40625 26.105469 6.414062 25.941406 6.425781 25.773438 C 6.453125 25.347656 6.511719 24.933594 6.605469 24.535156 C 6.753906 23.925781 6.964844 23.339844 7.253906 22.800781 C 7.308594 22.6875 7.367188 22.574219 7.433594 22.464844 C 7.460938 22.414062 7.492188 22.367188 7.519531 22.3125 C 7.640625 22.121094 7.773438 21.933594 7.90625 21.746094 C 8.1875 21.378906 8.5 21.035156 8.832031 20.71875 C 8.839844 20.71875 8.839844 20.71875 8.839844 20.71875 C 8.867188 20.691406 8.894531 20.667969 8.921875 20.648438 C 8.953125 20.621094 8.980469 20.585938 9.011719 20.566406 C 9.148438 20.445312 9.28125 20.339844 9.421875 20.238281 C 9.421875 20.234375 9.425781 20.234375 9.425781 20.234375 C 10.6875 19.292969 12.246094 18.738281 13.945312 18.738281 C 15.265625 18.738281 16.492188 19.074219 17.566406 19.660156 L 17.574219 19.660156 C 18.492188 20.167969 19.292969 20.851562 19.925781 21.679688 C 20.171875 22 20.394531 22.339844 20.578125 22.699219 L 20.585938 22.699219 C 20.621094 22.765625 20.652344 22.832031 20.6875 22.898438 C 20.886719 23.292969 21.046875 23.707031 21.167969 24.132812 L 21.171875 24.132812 C 21.179688 24.167969 21.191406 24.199219 21.199219 24.234375 C 21.28125 24.519531 21.347656 24.8125 21.394531 25.113281 C 21.398438 25.171875 21.40625 25.238281 21.414062 25.300781 C 21.460938 25.621094 21.480469 25.945312 21.480469 26.28125 Z M 21.480469 26.28125 "/>
<path style=" stroke:none;fill-rule:nonzero;fill:rgb(100%,83.529413%,30.980393%);fill-opacity:1;" d="M 20.113281 26.207031 C 20.113281 26.3125 20.113281 26.425781 20.101562 26.535156 L 20.101562 26.539062 C 20.101562 26.546875 20.101562 26.546875 20.101562 26.546875 C 20.085938 27.027344 20.019531 27.5 19.914062 27.925781 C 19.914062 27.953125 19.90625 27.972656 19.894531 28 L 16.78125 28 L 14.214844 27.445312 L 13.875 27.375 L 13.820312 27.386719 L 10.972656 27.972656 L 10.847656 28 L 10.667969 28 C 10.238281 28 9.820312 27.960938 9.414062 27.878906 C 9.351562 27.867188 9.292969 27.851562 9.234375 27.839844 L 9.226562 27.839844 C 8.761719 27.738281 8.308594 27.585938 7.878906 27.386719 C 7.867188 27.3125 7.851562 27.238281 7.847656 27.167969 C 7.800781 26.878906 7.78125 26.578125 7.78125 26.28125 C 7.78125 26.167969 7.78125 26.054688 7.785156 25.941406 C 7.808594 25.578125 7.859375 25.226562 7.941406 24.886719 C 7.992188 24.632812 8.066406 24.386719 8.152344 24.152344 C 8.226562 23.945312 8.3125 23.746094 8.40625 23.554688 C 8.488281 23.386719 8.578125 23.226562 8.671875 23.066406 C 8.765625 22.914062 8.867188 22.765625 8.972656 22.621094 C 9.238281 22.253906 9.554688 21.914062 9.898438 21.613281 C 10.101562 21.441406 10.320312 21.273438 10.546875 21.125 C 11.519531 20.488281 12.6875 20.113281 13.945312 20.113281 C 14.191406 20.113281 14.433594 20.125 14.667969 20.160156 L 14.679688 20.160156 C 15.394531 20.238281 16.058594 20.441406 16.671875 20.738281 C 16.679688 20.738281 16.679688 20.738281 16.679688 20.738281 C 17.648438 21.214844 18.464844 21.925781 19.066406 22.808594 C 19.167969 22.953125 19.265625 23.113281 19.351562 23.273438 C 19.425781 23.398438 19.492188 23.535156 19.554688 23.667969 C 19.648438 23.875 19.734375 24.09375 19.808594 24.3125 L 19.8125 24.3125 C 19.886719 24.558594 19.953125 24.808594 20 25.066406 L 20 25.074219 C 20.074219 25.441406 20.113281 25.820312 20.113281 26.207031 Z M 20.113281 26.207031 "/>
<path style=" stroke:none;fill-rule:nonzero;fill:rgb(100%,87.843138%,50.980395%);fill-opacity:1;" d="M 18.738281 26.347656 L 18.738281 26.367188 C 18.738281 26.761719 18.691406 27.148438 18.601562 27.527344 C 18.566406 27.6875 18.519531 27.847656 18.460938 28 L 15.472656 28 L 13.945312 27.578125 L 12.421875 28 L 10.667969 28 C 10.238281 28 9.820312 27.960938 9.414062 27.878906 C 9.398438 27.859375 9.394531 27.839844 9.386719 27.820312 C 9.292969 27.535156 9.21875 27.246094 9.1875 26.945312 C 9.160156 26.753906 9.148438 26.554688 9.148438 26.347656 C 9.148438 26.265625 9.148438 26.179688 9.160156 26.101562 C 9.167969 25.785156 9.214844 25.480469 9.292969 25.1875 C 9.332031 24.988281 9.394531 24.792969 9.472656 24.605469 C 9.5 24.511719 9.539062 24.425781 9.585938 24.339844 C 9.6875 24.113281 9.808594 23.894531 9.941406 23.679688 C 10.085938 23.464844 10.246094 23.265625 10.425781 23.078125 C 10.640625 22.839844 10.878906 22.621094 11.152344 22.441406 C 11.621094 22.101562 12.152344 21.847656 12.734375 21.707031 C 13.121094 21.601562 13.527344 21.546875 13.945312 21.546875 C 15.28125 21.546875 16.472656 22.078125 17.339844 22.941406 C 17.375 22.972656 17.414062 23.011719 17.445312 23.058594 L 17.453125 23.058594 C 17.546875 23.160156 17.632812 23.261719 17.71875 23.375 C 17.964844 23.6875 18.171875 24.027344 18.332031 24.398438 C 18.414062 24.574219 18.480469 24.753906 18.535156 24.941406 C 18.539062 24.964844 18.546875 24.988281 18.554688 25.011719 C 18.648438 25.339844 18.707031 25.679688 18.71875 26.035156 C 18.734375 26.132812 18.738281 26.238281 18.738281 26.347656 Z M 18.738281 26.347656 "/>
<path style=" stroke:none;fill-rule:nonzero;fill:rgb(100%,92.54902%,70.19608%);fill-opacity:1;" d="M 17.375 26.347656 C 17.375 26.621094 17.339844 26.878906 17.265625 27.125 C 17.199219 27.394531 17.101562 27.648438 16.972656 27.886719 C 16.953125 27.925781 16.90625 28 16.90625 28 L 10.988281 28 C 10.980469 27.992188 10.972656 27.980469 10.972656 27.972656 C 10.894531 27.847656 10.828125 27.71875 10.773438 27.578125 C 10.640625 27.273438 10.558594 26.941406 10.535156 26.59375 C 10.519531 26.511719 10.519531 26.425781 10.519531 26.347656 C 10.519531 26.308594 10.519531 26.261719 10.527344 26.21875 C 10.535156 25.925781 10.574219 25.648438 10.652344 25.386719 C 10.71875 25.148438 10.808594 24.925781 10.921875 24.714844 C 10.921875 24.714844 10.925781 24.707031 10.925781 24.699219 C 11.007812 24.558594 11.09375 24.421875 11.191406 24.285156 C 11.519531 23.847656 11.953125 23.488281 12.453125 23.253906 C 12.460938 23.253906 12.460938 23.253906 12.460938 23.253906 C 12.621094 23.171875 12.785156 23.105469 12.960938 23.058594 C 12.960938 23.058594 12.960938 23.058594 12.964844 23.058594 C 13.273438 22.964844 13.605469 22.921875 13.945312 22.921875 C 14.339844 22.921875 14.71875 22.980469 15.066406 23.105469 C 15.191406 23.140625 15.3125 23.191406 15.433594 23.253906 C 15.433594 23.253906 15.433594 23.253906 15.441406 23.253906 C 16.011719 23.527344 16.5 23.953125 16.832031 24.488281 C 16.898438 24.585938 16.960938 24.691406 17.011719 24.808594 C 17.039062 24.851562 17.066406 24.90625 17.085938 24.953125 C 17.238281 25.300781 17.332031 25.679688 17.359375 26.078125 C 17.367188 26.113281 17.367188 26.148438 17.367188 26.1875 C 17.375 26.238281 17.375 26.292969 17.375 26.347656 Z M 17.375 26.347656 "/>
<path style="fill:none;stroke-width:2;stroke-linecap:round;stroke-linejoin:round;stroke:rgb(100%,100%,100%);stroke-opacity:1;stroke-miterlimit:10;" d="M 30 10.998047 L 18 10.998047 C 14.097656 10.998047 10.998047 14.097656 10.998047 18 L 10.998047 30 C 10.998047 33.902344 14.097656 37.001953 18 37.001953 L 30 37.001953 C 33.902344 37.001953 37.001953 33.902344 37.001953 30 L 37.001953 18 C 37.001953 14.097656 33.902344 10.998047 30 10.998047 Z M 30 10.998047 " transform="matrix(0.666667,0,0,0.666667,0,0)"/>
<path style=" stroke:none;fill-rule:nonzero;fill:rgb(100%,100%,100%);fill-opacity:1;" d="M 21.332031 10.667969 C 21.332031 10.296875 21.035156 10 20.667969 10 C 20.296875 10 20 10.296875 20 10.667969 C 20 11.035156 20.296875 11.332031 20.667969 11.332031 C 21.035156 11.332031 21.332031 11.035156 21.332031 10.667969 Z M 21.332031 10.667969 "/>
<path style="fill:none;stroke-width:2;stroke-linecap:round;stroke-linejoin:round;stroke:rgb(100%,100%,100%);stroke-opacity:1;stroke-miterlimit:10;" d="M 30 24 C 30 20.683594 27.316406 18 24 18 C 20.683594 18 18 20.683594 18 24 C 18 27.316406 20.683594 30 24 30 C 27.316406 30 30 27.316406 30 24 Z M 30 24 " transform="matrix(0.666667,0,0,0.666667,0,0)"/>
</g>
</svg>
