<?xml version="1.0" encoding="UTF-8"?>
<svg xmlns="http://www.w3.org/2000/svg" xmlns:xlink="http://www.w3.org/1999/xlink" width="32px" height="px" viewBox="0 0 32 32" version="1.1">
<g id="surface1">
<path style=" stroke:none;fill-rule:nonzero;fill:rgb(0.784314%,53.333336%,81.960785%);fill-opacity:1;" d="M 28 24.667969 C 28 26.507812 26.507812 28 24.667969 28 L 7.332031 28 C 5.492188 28 4 26.507812 4 24.667969 L 4 7.332031 C 4 5.492188 5.492188 4 7.332031 4 L 24.667969 4 C 26.507812 4 28 5.492188 28 7.332031 Z M 28 24.667969 "/>
<path style=" stroke:none;fill-rule:nonzero;fill:rgb(100%,100%,100%);fill-opacity:1;" d="M 8 12.667969 L 11.332031 12.667969 L 11.332031 24 L 8 24 Z M 9.65625 11.332031 L 9.636719 11.332031 C 8.644531 11.332031 8 10.59375 8 9.664062 C 8 8.71875 8.664062 8 9.675781 8 C 10.691406 8 11.316406 8.71875 11.332031 9.664062 C 11.332031 10.589844 10.691406 11.332031 9.65625 11.332031 Z M 24 24 L 20.667969 24 L 20.667969 17.933594 C 20.667969 16.46875 19.851562 15.46875 18.539062 15.46875 C 17.539062 15.46875 16.996094 16.144531 16.734375 16.796875 C 16.636719 17.027344 16.667969 17.675781 16.667969 18 L 16.667969 24 L 13.332031 24 L 13.332031 12.667969 L 16.667969 12.667969 L 16.667969 14.410156 C 17.148438 13.667969 17.898438 12.667969 19.824219 12.667969 C 22.210938 12.667969 24 14.167969 24 17.515625 Z M 24 24 "/>
</g>
</svg>
