<?xml version="1.0" encoding="UTF-8"?>
<svg xmlns="http://www.w3.org/2000/svg" xmlns:xlink="http://www.w3.org/1999/xlink" width="32px" height="32px" viewBox="0 0 32 32" version="1.1">
<g id="surface1">
<path style=" stroke:none;fill-rule:nonzero;fill:rgb(100%,100%,100%);fill-opacity:1;" d="M 9.664062 18.273438 L 12.960938 18.273438 L 11.429688 23.0625 L 7.054688 23.0625 C 6.828125 23.0625 6.640625 22.875 6.640625 22.644531 C 6.640625 22.566406 6.664062 22.488281 6.710938 22.417969 L 9.316406 18.457031 C 9.394531 18.347656 9.523438 18.273438 9.664062 18.273438 Z M 9.664062 18.273438 "/>
<path style=" stroke:none;fill-rule:nonzero;fill:rgb(20%,20%,20%);fill-opacity:1;" d="M 12.640625 24.726562 L 7.054688 24.726562 C 5.910156 24.726562 4.976562 23.796875 4.976562 22.648438 C 4.976562 22.242188 5.097656 21.847656 5.320312 21.503906 L 7.929688 17.546875 C 8.3125 16.960938 8.960938 16.613281 9.664062 16.613281 L 15.238281 16.613281 Z M 9.664062 18.273438 C 9.523438 18.273438 9.394531 18.34375 9.316406 18.460938 L 6.710938 22.421875 C 6.664062 22.488281 6.640625 22.566406 6.640625 22.648438 C 6.640625 22.878906 6.828125 23.066406 7.054688 23.066406 L 11.429688 23.066406 L 12.960938 18.277344 L 9.664062 18.277344 Z M 9.664062 18.273438 "/>
<path style=" stroke:none;fill-rule:nonzero;fill:rgb(100%,100%,100%);fill-opacity:1;" d="M 14.207031 18.273438 L 17.632812 18.273438 L 18.421875 23.066406 L 13.414062 23.066406 Z M 14.207031 18.273438 "/>
<path style=" stroke:none;fill-rule:nonzero;fill:rgb(20%,20%,20%);fill-opacity:1;" d="M 20.382812 24.726562 L 11.457031 24.726562 L 12.792969 16.613281 L 19.042969 16.613281 Z M 13.414062 23.066406 L 18.421875 23.066406 L 17.632812 18.273438 L 14.207031 18.273438 Z M 13.414062 23.066406 "/>
<path style=" stroke:none;fill-rule:nonzero;fill:rgb(100%,100%,100%);fill-opacity:1;" d="M 19.332031 18.273438 L 22.628906 18.273438 C 22.769531 18.273438 22.898438 18.34375 22.976562 18.460938 L 25.585938 22.421875 C 25.710938 22.613281 25.65625 22.871094 25.464844 22.996094 C 25.398438 23.039062 25.320312 23.066406 25.238281 23.066406 L 20.867188 23.066406 Z M 19.332031 18.273438 "/>
<path style=" stroke:none;fill-rule:nonzero;fill:rgb(20%,20%,20%);fill-opacity:1;" d="M 25.238281 24.726562 L 19.652344 24.726562 L 17.054688 16.613281 L 22.632812 16.613281 C 23.332031 16.613281 23.980469 16.960938 24.367188 17.546875 L 26.972656 21.503906 C 27.277344 21.96875 27.382812 22.523438 27.273438 23.066406 C 27.160156 23.613281 26.84375 24.078125 26.378906 24.382812 C 26.039062 24.609375 25.644531 24.726562 25.238281 24.726562 Z M 20.867188 23.066406 L 25.238281 23.066406 C 25.320312 23.066406 25.398438 23.039062 25.464844 22.996094 C 25.589844 22.914062 25.632812 22.796875 25.644531 22.734375 C 25.65625 22.671875 25.664062 22.546875 25.585938 22.421875 L 22.976562 18.464844 C 22.898438 18.347656 22.773438 18.277344 22.632812 18.277344 L 19.332031 18.277344 Z M 20.867188 23.066406 "/>
<path style=" stroke:none;fill-rule:nonzero;fill:rgb(54.901963%,66.666669%,100%);fill-opacity:1;" d="M 16.691406 19.992188 C 20.390625 16.792969 22.242188 13.929688 22.242188 11.40625 C 22.242188 7.4375 19.03125 4.777344 16.148438 4.777344 C 13.261719 4.777344 10.054688 7.4375 10.054688 11.40625 C 10.054688 13.929688 11.902344 16.789062 15.605469 19.992188 C 15.914062 20.257812 16.378906 20.257812 16.691406 19.992188 Z M 16.691406 19.992188 "/>
<path style=" stroke:none;fill-rule:nonzero;fill:rgb(20%,20%,20%);fill-opacity:1;" d="M 16.148438 21.023438 C 15.757812 21.023438 15.367188 20.886719 15.058594 20.617188 C 11.132812 17.226562 9.222656 14.210938 9.222656 11.40625 C 9.222656 6.945312 12.804688 3.945312 16.148438 3.945312 C 19.492188 3.945312 23.070312 6.945312 23.070312 11.40625 C 23.070312 14.210938 21.164062 17.226562 17.230469 20.617188 C 16.925781 20.886719 16.535156 21.023438 16.148438 21.023438 Z M 16.148438 5.609375 C 13.65625 5.609375 10.882812 7.992188 10.882812 11.40625 C 10.882812 13.664062 12.65625 16.34375 16.148438 19.363281 C 19.640625 16.34375 21.410156 13.664062 21.410156 11.40625 C 21.410156 7.992188 18.636719 5.609375 16.148438 5.609375 Z M 16.148438 5.609375 "/>
<path style=" stroke:none;fill-rule:nonzero;fill:rgb(100%,100%,100%);fill-opacity:1;" d="M 13.101562 10.875 C 13.101562 12.558594 14.464844 13.921875 16.148438 13.921875 C 17.828125 13.921875 19.195312 12.558594 19.195312 10.875 C 19.195312 9.191406 17.828125 7.828125 16.148438 7.828125 C 14.464844 7.828125 13.101562 9.191406 13.101562 10.875 Z M 13.101562 10.875 "/>
<path style=" stroke:none;fill-rule:nonzero;fill:rgb(20%,20%,20%);fill-opacity:1;" d="M 16.148438 14.753906 C 14.007812 14.753906 12.269531 13.011719 12.269531 10.875 C 12.269531 8.738281 14.007812 6.996094 16.148438 6.996094 C 18.285156 6.996094 20.023438 8.734375 20.023438 10.875 C 20.023438 13.015625 18.285156 14.753906 16.148438 14.753906 Z M 16.148438 8.65625 C 14.925781 8.65625 13.929688 9.648438 13.929688 10.871094 C 13.929688 12.09375 14.925781 13.085938 16.148438 13.085938 C 17.367188 13.085938 18.363281 12.09375 18.363281 10.871094 C 18.363281 9.648438 17.367188 8.65625 16.148438 8.65625 Z M 16.148438 8.65625 "/>
</g>
</svg>
