<?xml version="1.0" encoding="UTF-8"?>
<svg xmlns="http://www.w3.org/2000/svg" xmlns:xlink="http://www.w3.org/1999/xlink" width="32px" height="32px" viewBox="0 0 32 32" version="1.1">
<g id="surface1">
<path style=" stroke:none;fill-rule:nonzero;fill:rgb(65.490198%,72.156864%,77.64706%);fill-opacity:1;" d="M 28.445312 26.320312 L 5.425781 26.320312 C 4.570312 26.320312 3.871094 25.625 3.871094 24.769531 L 3.871094 9.253906 C 3.871094 8.398438 4.570312 7.699219 5.425781 7.699219 L 28.445312 7.699219 C 29.304688 7.699219 30 8.398438 30 9.253906 L 30 24.765625 C 30 25.625 29.304688 26.320312 28.445312 26.320312 Z M 28.445312 26.320312 "/>
<path style=" stroke:none;fill-rule:nonzero;fill:rgb(100%,100%,100%);fill-opacity:1;" d="M 8.511719 6.101562 L 3.710938 6.101562 C 3 6.101562 2.421875 6.679688 2.421875 7.394531 L 2.421875 23.433594 C 2.421875 24.148438 3 24.726562 3.710938 24.726562 L 27.257812 24.726562 C 27.972656 24.726562 28.550781 24.148438 28.550781 23.433594 L 28.550781 7.394531 C 28.550781 6.679688 27.972656 6.101562 27.257812 6.101562 Z M 8.511719 6.101562 "/>
<path style=" stroke:none;fill-rule:nonzero;fill:rgb(90.588236%,25.490198%,21.960784%);fill-opacity:1;" d="M 28.570312 13.445312 L 26.4375 13.445312 C 26.398438 13.445312 26.363281 13.410156 26.363281 13.367188 L 26.363281 12.023438 C 26.363281 11.984375 26.398438 11.949219 26.4375 11.949219 L 28.570312 11.949219 C 28.609375 11.949219 28.644531 11.984375 28.644531 12.023438 L 28.644531 13.367188 C 28.644531 13.414062 28.609375 13.445312 28.570312 13.445312 Z M 28.570312 13.445312 "/>
<path style=" stroke:none;fill-rule:nonzero;fill:rgb(20.392157%,45.490196%,72.549021%);fill-opacity:1;" d="M 28.570312 15.800781 L 26.4375 15.800781 C 26.398438 15.800781 26.363281 15.765625 26.363281 15.726562 L 26.363281 14.382812 C 26.363281 14.339844 26.398438 14.304688 26.4375 14.304688 L 28.570312 14.304688 C 28.609375 14.304688 28.644531 14.339844 28.644531 14.382812 L 28.644531 15.726562 C 28.644531 15.765625 28.609375 15.800781 28.570312 15.800781 Z M 28.570312 15.800781 "/>
<path style=" stroke:none;fill-rule:nonzero;fill:rgb(90.588236%,25.490198%,21.960784%);fill-opacity:1;" d="M 28.570312 18.15625 L 26.4375 18.15625 C 26.398438 18.15625 26.363281 18.121094 26.363281 18.082031 L 26.363281 16.738281 C 26.363281 16.695312 26.398438 16.664062 26.4375 16.664062 L 28.570312 16.664062 C 28.609375 16.664062 28.644531 16.695312 28.644531 16.738281 L 28.644531 18.082031 C 28.644531 18.121094 28.609375 18.15625 28.570312 18.15625 Z M 4.789062 13.445312 L 2.65625 13.445312 C 2.617188 13.445312 2.582031 13.410156 2.582031 13.367188 L 2.582031 12.023438 C 2.582031 11.984375 2.617188 11.949219 2.65625 11.949219 L 4.789062 11.949219 C 4.828125 11.949219 4.863281 11.984375 4.863281 12.023438 L 4.863281 13.367188 C 4.859375 13.414062 4.828125 13.445312 4.789062 13.445312 Z M 4.789062 13.445312 "/>
<path style=" stroke:none;fill-rule:nonzero;fill:rgb(20.392157%,45.490196%,72.549021%);fill-opacity:1;" d="M 4.789062 15.800781 L 2.65625 15.800781 C 2.617188 15.800781 2.582031 15.765625 2.582031 15.726562 L 2.582031 14.382812 C 2.582031 14.339844 2.617188 14.304688 2.65625 14.304688 L 4.789062 14.304688 C 4.828125 14.304688 4.863281 14.339844 4.863281 14.382812 L 4.863281 15.726562 C 4.859375 15.765625 4.828125 15.800781 4.789062 15.800781 Z M 4.789062 15.800781 "/>
<path style=" stroke:none;fill-rule:nonzero;fill:rgb(90.588236%,25.490198%,21.960784%);fill-opacity:1;" d="M 4.789062 18.15625 L 2.65625 18.15625 C 2.617188 18.15625 2.582031 18.121094 2.582031 18.082031 L 2.582031 16.738281 C 2.582031 16.695312 2.617188 16.664062 2.65625 16.664062 L 4.789062 16.664062 C 4.828125 16.664062 4.863281 16.695312 4.863281 16.738281 L 4.863281 18.082031 C 4.859375 18.121094 4.828125 18.15625 4.789062 18.15625 Z M 4.789062 18.15625 "/>
<path style=" stroke:none;fill-rule:nonzero;fill:rgb(100%,100%,100%);fill-opacity:1;" d="M 27.296875 6.996094 C 27.6875 6.71875 27.492188 6.101562 27.007812 6.101562 L 3.964844 6.101562 C 3.484375 6.101562 3.289062 6.714844 3.679688 6.996094 L 14.054688 14.394531 C 14.914062 15.003906 16.058594 15.003906 16.914062 14.394531 Z M 27.296875 6.996094 "/>
<path style=" stroke:none;fill-rule:nonzero;fill:rgb(24.313726%,22.745098%,22.352941%);fill-opacity:1;" d="M 15.488281 15.179688 C 14.902344 15.179688 14.34375 15.003906 13.867188 14.664062 L 3.492188 7.265625 C 3.195312 7.054688 3.070312 6.691406 3.183594 6.34375 C 3.296875 5.996094 3.601562 5.773438 3.96875 5.773438 L 27.011719 5.773438 C 27.378906 5.773438 27.683594 5.996094 27.796875 6.34375 C 27.910156 6.691406 27.789062 7.054688 27.492188 7.265625 L 17.105469 14.664062 C 16.632812 15.003906 16.070312 15.179688 15.488281 15.179688 Z M 3.964844 6.429688 C 3.855469 6.429688 3.820312 6.511719 3.808594 6.542969 C 3.796875 6.578125 3.78125 6.664062 3.871094 6.726562 L 14.25 14.128906 C 14.613281 14.386719 15.039062 14.523438 15.488281 14.523438 C 15.933594 14.523438 16.363281 14.386719 16.726562 14.128906 L 27.101562 6.730469 C 27.191406 6.667969 27.175781 6.582031 27.164062 6.546875 C 27.152344 6.511719 27.117188 6.433594 27.007812 6.433594 L 3.964844 6.433594 Z M 3.964844 6.429688 "/>
<path style=" stroke:none;fill-rule:nonzero;fill:rgb(24.313726%,22.745098%,22.352941%);fill-opacity:1;" d="M 27.261719 25.148438 L 3.710938 25.148438 C 2.769531 25.148438 2 24.378906 2 23.433594 L 2 7.394531 C 2 6.449219 2.769531 5.679688 3.710938 5.679688 L 27.257812 5.679688 C 28.203125 5.679688 28.972656 6.449219 28.972656 7.394531 L 28.972656 23.433594 C 28.976562 24.378906 28.207031 25.148438 27.261719 25.148438 Z M 3.710938 6.523438 C 3.234375 6.523438 2.847656 6.914062 2.847656 7.390625 L 2.847656 23.429688 C 2.847656 23.910156 3.234375 24.296875 3.710938 24.296875 L 27.257812 24.296875 C 27.738281 24.296875 28.125 23.910156 28.125 23.429688 L 28.125 7.394531 C 28.125 6.914062 27.738281 6.527344 27.257812 6.527344 L 3.710938 6.527344 Z M 3.710938 6.523438 "/>
<path style=" stroke:none;fill-rule:nonzero;fill:rgb(100%,100%,100%);fill-opacity:1;" d="M 13.277344 14.820312 C 13.277344 16.050781 14.273438 17.046875 15.503906 17.046875 C 16.730469 17.046875 17.726562 16.050781 17.726562 14.820312 C 17.726562 13.59375 16.730469 12.597656 15.503906 12.597656 C 14.273438 12.597656 13.277344 13.59375 13.277344 14.820312 Z M 13.277344 14.820312 "/>
<path style=" stroke:none;fill-rule:nonzero;fill:rgb(24.313726%,22.745098%,22.352941%);fill-opacity:1;" d="M 15.503906 17.375 C 14.09375 17.375 12.949219 16.226562 12.949219 14.820312 C 12.949219 13.414062 14.097656 12.269531 15.503906 12.269531 C 16.910156 12.269531 18.054688 13.414062 18.054688 14.820312 C 18.054688 16.226562 16.910156 17.375 15.503906 17.375 Z M 15.503906 12.925781 C 14.460938 12.925781 13.609375 13.773438 13.609375 14.820312 C 13.609375 15.863281 14.460938 16.710938 15.503906 16.710938 C 16.546875 16.710938 17.398438 15.863281 17.398438 14.820312 C 17.398438 13.773438 16.546875 12.925781 15.503906 12.925781 Z M 15.503906 12.925781 "/>
<path style=" stroke:none;fill-rule:nonzero;fill:rgb(90.588236%,25.490198%,21.960784%);fill-opacity:1;" d="M 14.277344 14.820312 C 14.277344 15.5 14.828125 16.046875 15.503906 16.046875 C 16.179688 16.046875 16.726562 15.5 16.726562 14.820312 C 16.726562 14.144531 16.179688 13.597656 15.503906 13.597656 C 14.828125 13.597656 14.277344 14.144531 14.277344 14.820312 Z M 14.277344 14.820312 "/>
<path style=" stroke:none;fill-rule:nonzero;fill:rgb(20%,43.137255%,67.843139%);fill-opacity:1;" d="M 15.503906 16.375 C 14.648438 16.375 13.949219 15.679688 13.949219 14.820312 C 13.949219 13.964844 14.648438 13.269531 15.503906 13.269531 C 16.359375 13.269531 17.054688 13.964844 17.054688 14.820312 C 17.054688 15.679688 16.359375 16.375 15.503906 16.375 Z M 15.503906 13.929688 C 15.007812 13.929688 14.609375 14.328125 14.609375 14.820312 C 14.609375 15.316406 15.007812 15.714844 15.503906 15.714844 C 15.996094 15.714844 16.398438 15.316406 16.398438 14.820312 C 16.398438 14.328125 15.992188 13.929688 15.503906 13.929688 Z M 15.503906 13.929688 "/>
<path style=" stroke:none;fill-rule:nonzero;fill:rgb(78.823531%,90.196079%,90.196079%);fill-opacity:1;" d="M 20.835938 21.40625 L 5.523438 21.40625 C 5.460938 21.40625 5.410156 21.355469 5.410156 21.292969 L 5.410156 20.835938 C 5.410156 20.773438 5.460938 20.726562 5.523438 20.726562 L 20.835938 20.726562 C 20.898438 20.726562 20.945312 20.773438 20.945312 20.835938 L 20.945312 21.292969 C 20.945312 21.355469 20.898438 21.40625 20.835938 21.40625 Z M 15.984375 22.679688 L 5.523438 22.679688 C 5.460938 22.679688 5.414062 22.628906 5.414062 22.566406 L 5.414062 22.109375 C 5.414062 22.046875 5.460938 21.996094 5.523438 21.996094 L 15.988281 21.996094 C 16.050781 21.996094 16.101562 22.046875 16.101562 22.109375 L 16.101562 22.566406 C 16.101562 22.628906 16.046875 22.679688 15.984375 22.679688 Z M 25.542969 19.957031 L 5.523438 19.957031 C 5.460938 19.957031 5.414062 19.90625 5.414062 19.84375 L 5.414062 19.386719 C 5.414062 19.324219 5.460938 19.273438 5.523438 19.273438 L 25.542969 19.273438 C 25.605469 19.273438 25.65625 19.324219 25.65625 19.386719 L 25.65625 19.84375 C 25.65625 19.90625 25.605469 19.957031 25.542969 19.957031 Z M 25.542969 19.957031 "/>
</g>
</svg>
