<?xml version="1.0" encoding="UTF-8"?>
<svg xmlns="http://www.w3.org/2000/svg" xmlns:xlink="http://www.w3.org/1999/xlink" width="32px" height="32px" viewBox="0 0 32 32" version="1.1">
<g id="surface1">
<path style=" stroke:none;fill-rule:nonzero;fill:rgb(0%,0%,0%);fill-opacity:1;" d="M 12.359375 0.0195312 C 12.238281 0.0195312 12.117188 0.0507812 12 0.101562 L 7.421875 2 C 6.949219 2.199219 6.710938 2.746094 6.898438 3.21875 C 6.898438 3.226562 6.898438 3.234375 6.898438 3.238281 L 7.398438 4.441406 C 7.59375 4.914062 8.164062 5.140625 8.640625 4.941406 L 9.121094 4.738281 L 9.679688 6.179688 L 9.578125 6.21875 C 9.398438 6.292969 9.253906 6.335938 9.101562 6.421875 C 8.949219 6.503906 8.726562 6.660156 8.621094 6.921875 C 8.515625 7.179688 8.574219 7.414062 8.621094 7.578125 C 8.667969 7.746094 8.726562 7.878906 8.800781 8.058594 C 8.800781 8.066406 8.800781 8.074219 8.800781 8.078125 L 8.921875 8.398438 L 8.640625 8.5 C 5.308594 9.855469 3.691406 13.675781 5.039062 17 C 5.039062 17.007812 5.039062 17.011719 5.039062 17.019531 L 6.5 20.480469 C 6 21.210938 5.699219 22.09375 5.699219 23.039062 C 5.699219 25.222656 7.257812 27.054688 9.320312 27.480469 C 9.320312 27.492188 9.320312 27.507812 9.320312 27.519531 C 9.445312 27.738281 9.578125 27.949219 9.71875 28.160156 L 6.320312 28.160156 C 5.289062 28.160156 4.480469 29.046875 4.480469 30.078125 L 4.480469 31.359375 C 4.480469 31.710938 4.765625 32 5.121094 32 L 26.878906 32 C 27.234375 32 27.519531 31.710938 27.519531 31.359375 L 27.519531 30.078125 C 27.519531 29.046875 26.710938 28.160156 25.679688 28.160156 L 23.878906 28.160156 C 25.0625 27.65625 25.664062 26.308594 25.199219 25.101562 C 24.84375 24.171875 23.960938 23.574219 23.019531 23.539062 C 22.707031 23.53125 22.390625 23.578125 22.078125 23.699219 L 15.78125 26.140625 C 15.773438 26.140625 15.765625 26.140625 15.761719 26.140625 C 15.515625 26.238281 15.203125 26.230469 14.839844 26.078125 C 14.5625 25.964844 14.292969 25.753906 14.039062 25.519531 C 14.507812 24.808594 14.78125 23.949219 14.78125 23.039062 C 14.78125 22.746094 14.734375 22.457031 14.679688 22.179688 L 22.960938 18.800781 C 23.300781 18.710938 23.507812 18.363281 23.421875 18.019531 C 23.332031 17.675781 22.984375 17.472656 22.640625 17.558594 C 22.585938 17.566406 22.53125 17.578125 22.480469 17.601562 L 14.261719 20.980469 C 13.589844 19.679688 12.324219 18.734375 10.820312 18.539062 L 9.5 15.199219 C 9.148438 14.328125 9.566406 13.335938 10.441406 12.980469 C 10.449219 12.980469 10.453125 12.980469 10.460938 12.980469 L 10.78125 12.839844 L 11.738281 15.179688 C 11.75 15.21875 11.761719 15.261719 11.78125 15.300781 L 12.421875 16.859375 C 12.484375 17.011719 12.609375 17.136719 12.761719 17.199219 L 14.601562 17.980469 C 14.753906 18.042969 14.925781 18.042969 15.078125 17.980469 L 17.699219 16.941406 C 17.851562 16.875 17.976562 16.753906 18.039062 16.601562 L 18.839844 14.761719 C 18.902344 14.605469 18.902344 14.433594 18.839844 14.28125 L 18.21875 12.800781 C 18.21875 12.789062 18.21875 12.773438 18.21875 12.761719 L 18.21875 12.738281 C 18.210938 12.734375 18.207031 12.726562 18.199219 12.71875 C 18.199219 12.707031 18.199219 12.691406 18.199219 12.679688 C 18.1875 12.652344 18.175781 12.625 18.160156 12.601562 L 15.199219 5.441406 C 15.128906 5.261719 15.078125 5.128906 15 4.980469 C 14.921875 4.828125 14.785156 4.613281 14.519531 4.5 C 14.253906 4.386719 14.023438 4.433594 13.859375 4.480469 C 13.699219 4.527344 13.558594 4.585938 13.378906 4.660156 L 13.261719 4.699219 L 12.679688 3.261719 L 13.21875 3.039062 C 13.683594 2.84375 13.925781 2.292969 13.738281 1.820312 L 13.738281 1.800781 L 13.238281 0.601562 C 13.085938 0.25 12.726562 0.0234375 12.359375 0.0195312 Z M 12.179688 1.398438 L 12.441406 1.980469 L 8.460938 3.640625 L 8.199219 3.058594 Z M 11.5 3.738281 L 12.078125 5.199219 L 10.878906 5.699219 L 10.300781 4.238281 Z M 13.980469 5.820312 C 13.996094 5.859375 14 5.871094 14.019531 5.921875 C 14.019531 5.925781 14.019531 5.933594 14.019531 5.941406 L 16.78125 12.601562 L 12.71875 14.21875 L 9.980469 7.601562 C 9.976562 7.59375 9.984375 7.585938 9.980469 7.578125 C 9.953125 7.519531 9.9375 7.507812 9.921875 7.460938 C 9.96875 7.441406 9.976562 7.425781 10.039062 7.398438 C 10.046875 7.398438 10.050781 7.398438 10.058594 7.398438 L 13.859375 5.859375 C 13.921875 5.835938 13.933594 5.835938 13.980469 5.820312 Z M 9.421875 9.558594 L 10.28125 11.660156 L 9.960938 11.78125 C 8.441406 12.398438 7.703125 14.160156 8.320312 15.679688 L 9.460938 18.578125 C 8.714844 18.710938 8.035156 19.011719 7.460938 19.460938 L 6.21875 16.519531 C 5.136719 13.847656 6.429688 10.804688 9.101562 9.699219 C 9.109375 9.699219 9.109375 9.683594 9.121094 9.679688 Z M 17.261719 13.800781 L 17.558594 14.5 L 16.960938 15.859375 L 14.859375 16.699219 L 13.5 16.121094 L 13.21875 15.421875 Z M 10.238281 19.898438 C 11.984375 19.898438 13.378906 21.296875 13.378906 23.039062 C 13.378906 24.785156 11.984375 26.179688 10.238281 26.179688 C 8.496094 26.179688 7.101562 24.785156 7.101562 23.039062 C 7.101562 21.296875 8.496094 19.898438 10.238281 19.898438 Z M 22.980469 24.820312 C 23.421875 24.835938 23.828125 25.117188 24 25.558594 C 24.226562 26.148438 23.929688 26.792969 23.339844 27.019531 L 20.359375 28.160156 L 11.320312 28.160156 C 11.175781 28 11.023438 27.78125 10.859375 27.539062 C 11.734375 27.421875 12.535156 27.050781 13.179688 26.5 C 13.53125 26.816406 13.925781 27.078125 14.359375 27.261719 C 14.941406 27.5 15.609375 27.574219 16.238281 27.320312 L 22.539062 24.898438 C 22.6875 24.84375 22.832031 24.816406 22.980469 24.820312 Z M 6.320312 29.441406 L 25.679688 29.441406 C 25.972656 29.441406 26.238281 29.699219 26.238281 30.078125 L 26.238281 30.71875 L 5.761719 30.71875 L 5.761719 30.078125 C 5.761719 29.699219 6.027344 29.441406 6.320312 29.441406 Z M 6.320312 29.441406 "/>
</g>
</svg>
