<?xml version="1.0" encoding="UTF-8"?>
<svg xmlns="http://www.w3.org/2000/svg" xmlns:xlink="http://www.w3.org/1999/xlink" width="32px" height="32px" viewBox="0 0 32 32" version="1.1">
<g id="surface1">
<path style=" stroke:none;fill-rule:nonzero;fill:rgb(0%,0%,0%);fill-opacity:1;" d="M 30.972656 15.304688 L 19.703125 15.304688 C 19.734375 14.933594 19.734375 14.582031 19.699219 14.210938 L 24.875 12.148438 C 25.265625 11.992188 25.519531 11.613281 25.519531 11.195312 L 25.519531 1.8125 C 25.519531 1.246094 25.0625 0.785156 24.492188 0.785156 C 23.925781 0.785156 23.464844 1.246094 23.464844 1.8125 L 23.464844 10.496094 L 19.125 12.226562 C 19.015625 12.019531 18.890625 11.824219 18.757812 11.644531 C 20.167969 10.921875 20.4375 9.636719 20.4375 8.757812 C 20.4375 7.078125 19.480469 5.015625 17.992188 3.980469 L 19.824219 2.394531 C 20.25 2.023438 20.296875 1.375 19.925781 0.945312 C 19.554688 0.515625 18.90625 0.46875 18.476562 0.839844 L 16 2.984375 L 13.523438 0.839844 C 13.09375 0.46875 12.445312 0.515625 12.074219 0.945312 C 11.703125 1.375 11.75 2.023438 12.175781 2.394531 L 14.007812 3.976562 C 12.519531 5.015625 11.5625 7.082031 11.5625 8.757812 C 11.5625 10.195312 12.210938 11.117188 13.242188 11.640625 C 13.109375 11.824219 12.988281 12.019531 12.878906 12.226562 L 8.535156 10.496094 L 8.535156 1.8125 C 8.535156 1.246094 8.074219 0.785156 7.507812 0.785156 C 6.9375 0.785156 6.480469 1.246094 6.480469 1.8125 L 6.480469 11.195312 C 6.480469 11.613281 6.734375 11.992188 7.125 12.148438 L 12.300781 14.210938 C 12.265625 14.574219 12.265625 14.921875 12.296875 15.304688 L 1.027344 15.304688 C 0.460938 15.304688 0 15.761719 0 16.332031 C 0 16.898438 0.460938 17.359375 1.027344 17.359375 L 12.898438 17.359375 C 12.957031 17.46875 13.019531 17.574219 13.085938 17.675781 L 7.125 20.050781 C 6.734375 20.203125 6.480469 20.582031 6.480469 21.003906 L 6.480469 30.382812 C 6.480469 30.949219 6.9375 31.410156 7.507812 31.410156 C 8.074219 31.410156 8.535156 30.949219 8.535156 30.382812 L 8.535156 21.699219 L 12.011719 20.316406 C 11.648438 21.144531 11.445312 22.097656 11.445312 23.09375 C 11.445312 26.195312 13.398438 28.835938 16 28.835938 C 18.597656 28.835938 20.554688 26.195312 20.554688 23.09375 C 20.554688 22.097656 20.351562 21.144531 19.988281 20.316406 L 23.464844 21.699219 L 23.464844 30.382812 C 23.464844 30.949219 23.925781 31.410156 24.492188 31.410156 C 25.0625 31.410156 25.519531 30.949219 25.519531 30.382812 L 25.519531 21.003906 C 25.519531 20.582031 25.265625 20.203125 24.875 20.050781 L 18.914062 17.675781 C 18.980469 17.574219 19.042969 17.46875 19.101562 17.359375 L 30.972656 17.359375 C 31.539062 17.359375 32 16.898438 32 16.332031 C 32 15.761719 31.539062 15.304688 30.972656 15.304688 Z M 30.972656 15.304688 "/>
</g>
</svg>
