<?xml version="1.0" encoding="UTF-8"?>
<svg xmlns="http://www.w3.org/2000/svg" xmlns:xlink="http://www.w3.org/1999/xlink" width="32px" height="32px" viewBox="0 0 32 32" version="1.1">
<g id="surface1">
<path style=" stroke:none;fill-rule:nonzero;fill:rgb(20%,20%,20%);fill-opacity:1;" d="M 2.714844 9.386719 C 1.589844 9.386719 0.675781 8.472656 0.675781 7.347656 C 0.675781 6.222656 1.589844 5.308594 2.714844 5.308594 C 3.839844 5.308594 4.753906 6.222656 4.753906 7.347656 C 4.753906 8.472656 3.839844 9.386719 2.714844 9.386719 Z M 2.714844 6.414062 C 2.199219 6.414062 1.78125 6.832031 1.78125 7.347656 C 1.78125 7.863281 2.199219 8.28125 2.714844 8.28125 C 3.230469 8.28125 3.648438 7.863281 3.648438 7.347656 C 3.648438 6.832031 3.230469 6.414062 2.714844 6.414062 Z M 2.714844 6.414062 "/>
<path style=" stroke:none;fill-rule:nonzero;fill:rgb(20%,20%,20%);fill-opacity:1;" d="M 19.984375 12.507812 C 18.859375 12.507812 17.941406 11.59375 17.941406 10.46875 C 17.941406 9.34375 18.859375 8.429688 19.984375 8.429688 C 21.105469 8.429688 22.023438 9.34375 22.023438 10.46875 C 22.023438 11.59375 21.105469 12.507812 19.984375 12.507812 Z M 19.984375 9.535156 C 19.46875 9.535156 19.046875 9.957031 19.046875 10.46875 C 19.046875 10.984375 19.46875 11.402344 19.984375 11.402344 C 20.496094 11.402344 20.917969 10.984375 20.917969 10.46875 C 20.917969 9.957031 20.496094 9.535156 19.984375 9.535156 Z M 19.984375 9.535156 "/>
<path style=" stroke:none;fill-rule:nonzero;fill:rgb(20%,20%,20%);fill-opacity:1;" d="M 11.347656 6.953125 C 9.503906 6.953125 8.003906 5.453125 8.003906 3.609375 C 8.003906 1.765625 9.503906 0.265625 11.347656 0.265625 C 13.191406 0.265625 14.691406 1.765625 14.691406 3.609375 C 14.691406 5.453125 13.191406 6.953125 11.347656 6.953125 Z M 11.347656 1.371094 C 10.113281 1.371094 9.109375 2.375 9.109375 3.609375 C 9.109375 4.84375 10.113281 5.847656 11.347656 5.847656 C 12.582031 5.847656 13.585938 4.84375 13.585938 3.609375 C 13.585938 2.375 12.582031 1.371094 11.347656 1.371094 Z M 11.347656 1.371094 "/>
<path style=" stroke:none;fill-rule:nonzero;fill:rgb(20%,20%,20%);fill-opacity:1;" d="M 28.617188 6.953125 C 26.773438 6.953125 25.273438 5.453125 25.273438 3.609375 C 25.273438 1.765625 26.773438 0.265625 28.617188 0.265625 C 30.460938 0.265625 31.960938 1.765625 31.960938 3.609375 C 31.960938 5.453125 30.460938 6.953125 28.617188 6.953125 Z M 28.617188 1.371094 C 27.382812 1.371094 26.378906 2.375 26.378906 3.609375 C 26.378906 4.84375 27.382812 5.847656 28.617188 5.847656 C 29.851562 5.847656 30.855469 4.84375 30.855469 3.609375 C 30.855469 2.375 29.851562 1.371094 28.617188 1.371094 Z M 28.617188 1.371094 "/>
<path style=" stroke:none;fill-rule:nonzero;fill:rgb(20%,20%,20%);fill-opacity:1;" d="M 8.460938 4.058594 L 8.976562 5.035156 L 4.457031 7.402344 L 3.945312 6.421875 Z M 8.460938 4.058594 "/>
<path style=" stroke:none;fill-rule:nonzero;fill:rgb(20%,20%,20%);fill-opacity:1;" d="M 13.96875 5.050781 L 19.152344 9.386719 L 18.441406 10.234375 L 13.261719 5.898438 Z M 13.96875 5.050781 "/>
<path style=" stroke:none;fill-rule:nonzero;fill:rgb(20%,20%,20%);fill-opacity:1;" d="M 21.621094 10.398438 L 20.925781 9.539062 L 26.1875 5.277344 L 26.882812 6.136719 Z M 21.621094 10.398438 "/>
<path style=" stroke:none;fill-rule:nonzero;fill:rgb(20%,20%,20%);fill-opacity:1;" d="M 3.96875 31.734375 L 1.460938 31.734375 C 0.675781 31.734375 0.0390625 31.089844 0.0390625 30.296875 L 0.0390625 13.546875 C 0.0390625 12.75 0.675781 12.105469 1.460938 12.105469 L 3.96875 12.105469 C 4.753906 12.105469 5.390625 12.75 5.390625 13.546875 L 5.390625 30.296875 C 5.390625 31.089844 4.753906 31.734375 3.96875 31.734375 Z M 1.460938 13.210938 C 1.285156 13.210938 1.144531 13.363281 1.144531 13.546875 L 1.144531 30.296875 C 1.144531 30.480469 1.285156 30.628906 1.460938 30.628906 L 3.96875 30.628906 C 4.144531 30.628906 4.285156 30.480469 4.285156 30.296875 L 4.285156 13.546875 C 4.285156 13.363281 4.144531 13.210938 3.96875 13.210938 Z M 1.460938 13.210938 "/>
<path style=" stroke:none;fill-rule:nonzero;fill:rgb(20%,20%,20%);fill-opacity:1;" d="M 12.605469 31.734375 L 10.09375 31.734375 C 9.308594 31.734375 8.671875 31.046875 8.671875 30.195312 L 8.671875 11.582031 C 8.671875 10.734375 9.308594 10.042969 10.09375 10.042969 L 12.605469 10.042969 C 13.386719 10.042969 14.023438 10.734375 14.023438 11.582031 L 14.023438 30.195312 C 14.023438 31.046875 13.386719 31.734375 12.605469 31.734375 Z M 10.09375 11.148438 C 9.921875 11.148438 9.777344 11.347656 9.777344 11.582031 L 9.777344 30.195312 C 9.777344 30.433594 9.921875 30.628906 10.09375 30.628906 L 12.605469 30.628906 C 12.773438 30.628906 12.917969 30.433594 12.917969 30.195312 L 12.917969 11.582031 C 12.917969 11.347656 12.773438 11.148438 12.605469 11.148438 Z M 10.09375 11.148438 "/>
<path style=" stroke:none;fill-rule:nonzero;fill:rgb(20%,20%,20%);fill-opacity:1;" d="M 21.238281 31.734375 L 18.726562 31.734375 C 17.945312 31.734375 17.304688 31.175781 17.304688 30.484375 L 17.304688 17.28125 C 17.304688 16.589844 17.945312 16.027344 18.726562 16.027344 L 21.238281 16.027344 C 22.019531 16.027344 22.660156 16.589844 22.660156 17.28125 L 22.660156 30.484375 C 22.660156 31.175781 22.019531 31.734375 21.238281 31.734375 Z M 18.726562 17.132812 C 18.523438 17.132812 18.414062 17.246094 18.414062 17.28125 L 18.414062 30.484375 C 18.414062 30.519531 18.523438 30.628906 18.726562 30.628906 L 21.238281 30.628906 C 21.441406 30.628906 21.550781 30.519531 21.550781 30.484375 L 21.550781 17.28125 C 21.550781 17.246094 21.441406 17.132812 21.238281 17.132812 Z M 18.726562 17.132812 "/>
<path style=" stroke:none;fill-rule:nonzero;fill:rgb(20%,20%,20%);fill-opacity:1;" d="M 29.871094 31.734375 L 27.359375 31.734375 C 26.578125 31.734375 25.941406 31.046875 25.941406 30.195312 L 25.941406 11.582031 C 25.941406 10.734375 26.578125 10.042969 27.359375 10.042969 L 29.871094 10.042969 C 30.65625 10.042969 31.292969 10.734375 31.292969 11.582031 L 31.292969 30.195312 C 31.292969 31.046875 30.65625 31.734375 29.871094 31.734375 Z M 27.359375 11.148438 C 27.191406 11.148438 27.046875 11.347656 27.046875 11.582031 L 27.046875 30.195312 C 27.046875 30.433594 27.191406 30.628906 27.359375 30.628906 L 29.871094 30.628906 C 30.042969 30.628906 30.1875 30.433594 30.1875 30.195312 L 30.1875 11.582031 C 30.1875 11.347656 30.042969 11.148438 29.871094 11.148438 Z M 27.359375 11.148438 "/>
</g>
</svg>
