<?xml version="1.0" encoding="UTF-8"?>
<svg xmlns="http://www.w3.org/2000/svg" xmlns:xlink="http://www.w3.org/1999/xlink" width="32px" height="32px" viewBox="0 0 32 32" version="1.1">
<g id="surface1">
<path style=" stroke:none;fill-rule:nonzero;fill:rgb(100%,67.450982%,35.294119%);fill-opacity:1;" d="M 21.519531 16.160156 L 10.425781 16.160156 C 9.972656 16.160156 9.625 15.785156 9.679688 15.332031 L 10.214844 9.785156 C 10.1875 6.265625 12.773438 3.386719 15.972656 3.386719 C 19.171875 3.386719 21.761719 6.265625 21.761719 9.785156 L 22.292969 15.332031 C 22.320312 15.785156 21.945312 16.160156 21.519531 16.160156 Z M 21.519531 16.160156 "/>
<path style=" stroke:none;fill-rule:nonzero;fill:rgb(26.666668%,56.078434%,98.823529%);fill-opacity:1;" d="M 20.878906 9.359375 L 20.160156 9.359375 L 20.160156 11.734375 L 20.878906 11.734375 C 21.28125 11.734375 21.625 11.464844 21.625 11.121094 L 21.625 9.945312 C 21.625 9.625 21.308594 9.359375 20.878906 9.359375 Z M 20.878906 9.359375 "/>
<path style=" stroke:none;fill-rule:nonzero;fill:rgb(26.666668%,56.078434%,98.823529%);fill-opacity:1;" d="M 10.347656 9.972656 L 10.347656 11.148438 C 10.347656 11.464844 10.667969 11.761719 11.09375 11.761719 L 11.8125 11.761719 L 11.8125 9.386719 L 11.09375 9.386719 C 10.667969 9.359375 10.347656 9.625 10.347656 9.972656 Z M 10.347656 9.972656 "/>
<path style=" stroke:none;fill-rule:nonzero;fill:rgb(97.647059%,58.823532%,32.549021%);fill-opacity:1;" d="M 25.492188 27.679688 L 6.480469 27.679688 L 6.480469 20.027344 C 6.480469 18.800781 7.359375 17.707031 8.667969 17.308594 L 14.132812 15.652344 C 15.359375 15.28125 16.640625 15.28125 17.8125 15.652344 L 23.28125 17.308594 C 24.585938 17.707031 25.464844 18.800781 25.464844 20.027344 Z M 25.492188 27.679688 "/>
<path style=" stroke:none;fill-rule:nonzero;fill:rgb(100%,83.529413%,31.764707%);fill-opacity:1;" d="M 17.253906 21.09375 L 20.425781 21.09375 L 20.425781 21.785156 L 17.253906 21.785156 Z M 17.253906 21.09375 "/>
<path style=" stroke:none;fill-rule:nonzero;fill:rgb(92.941177%,74.901962%,60.392159%);fill-opacity:1;" d="M 13.972656 12.292969 L 18 12.292969 L 18 17.894531 L 13.972656 17.894531 Z M 13.972656 12.292969 "/>
<path style=" stroke:none;fill-rule:nonzero;fill:rgb(100%,85.09804%,71.372551%);fill-opacity:1;" d="M 20.558594 9.546875 C 20.558594 12.640625 18.507812 15.785156 16 15.785156 C 13.492188 15.785156 11.414062 12.613281 11.414062 9.546875 C 11.414062 6.480469 13.464844 4.585938 16 4.585938 C 18.535156 4.585938 20.558594 6.453125 20.558594 9.546875 Z M 20.558594 9.546875 "/>
<path style=" stroke:none;fill-rule:nonzero;fill:rgb(87.843138%,51.372552%,26.666668%);fill-opacity:1;" d="M 10.851562 22.132812 L 10.71875 22.132812 C 10.585938 22.132812 10.453125 22.238281 10.453125 22.398438 L 10.453125 27.652344 L 11.148438 27.652344 L 11.148438 22.425781 C 11.121094 22.265625 10.988281 22.132812 10.851562 22.132812 Z M 10.851562 22.132812 "/>
<path style=" stroke:none;fill-rule:nonzero;fill:rgb(87.843138%,51.372552%,26.666668%);fill-opacity:1;" d="M 21.28125 22.132812 L 21.148438 22.132812 C 21.011719 22.132812 20.878906 22.238281 20.878906 22.398438 L 20.878906 27.652344 L 21.574219 27.652344 L 21.574219 22.425781 C 21.546875 22.265625 21.441406 22.132812 21.28125 22.132812 Z M 21.28125 22.132812 "/>
<path style=" stroke:none;fill-rule:nonzero;fill:rgb(87.843138%,51.372552%,26.666668%);fill-opacity:1;" d="M 18 16.027344 L 16 17.839844 L 13.972656 16.027344 L 13.679688 15.785156 L 11.546875 16.425781 L 14.71875 19.308594 L 16 17.894531 L 17.253906 19.308594 L 20.453125 16.425781 L 18.292969 15.785156 Z M 18 16.027344 "/>
<path style=" stroke:none;fill-rule:nonzero;fill:rgb(100%,100%,100%);fill-opacity:1;" d="M 17.8125 13.707031 C 17.492188 13.707031 17.414062 13.707031 17.011719 13.679688 L 16.613281 13.679688 L 16.613281 13.359375 L 17.011719 13.359375 C 18.851562 13.414062 19.464844 13.441406 20.027344 12.960938 C 20.613281 12.480469 20.507812 11.253906 20.507812 11.226562 L 20.828125 11.199219 C 20.828125 11.253906 20.960938 12.613281 20.238281 13.199219 C 19.707031 13.625 19.011719 13.707031 17.8125 13.707031 Z M 17.8125 13.707031 "/>
<path style=" stroke:none;fill-rule:nonzero;fill:rgb(26.666668%,56.078434%,98.823529%);fill-opacity:1;" d="M 17.359375 14.054688 L 16.265625 14.054688 C 16.105469 14.054688 15.972656 13.921875 15.972656 13.761719 L 15.972656 13.359375 C 15.972656 13.199219 16.105469 13.066406 16.265625 13.066406 L 17.359375 13.066406 C 17.519531 13.066406 17.652344 13.199219 17.652344 13.359375 L 17.652344 13.761719 C 17.679688 13.921875 17.546875 14.054688 17.359375 14.054688 Z M 17.359375 14.054688 "/>
<path style=" stroke:none;fill-rule:nonzero;fill:rgb(93.725491%,93.333334%,92.941177%);fill-opacity:1;" d="M 8.667969 18.746094 L 23.308594 18.746094 C 23.8125 18.746094 24.214844 19.171875 24.160156 19.679688 L 23.625 27.945312 L 8.375 27.945312 L 7.839844 19.679688 C 7.785156 19.171875 8.160156 18.746094 8.667969 18.746094 Z M 8.667969 18.746094 "/>
<path style=" stroke:none;fill-rule:nonzero;fill:rgb(50.196081%,69.803923%,97.647059%);fill-opacity:1;" d="M 16.960938 25.894531 C 16.960938 25.464844 16.691406 25.121094 16.320312 24.988281 L 16.320312 25.734375 C 16.320312 25.894531 16.214844 26.054688 16.027344 26.054688 C 15.839844 26.078125 15.652344 25.921875 15.652344 25.734375 L 15.652344 24.988281 C 15.253906 25.121094 14.988281 25.519531 15.011719 25.972656 C 15.039062 26.347656 15.308594 26.667969 15.652344 26.800781 L 15.652344 27.785156 L 16.292969 27.785156 L 16.292969 26.800781 C 16.691406 26.667969 16.960938 26.320312 16.960938 25.894531 Z M 16.960938 25.894531 "/>
<path style=" stroke:none;fill-rule:nonzero;fill:rgb(50.196081%,69.803923%,97.647059%);fill-opacity:1;" d="M 18.800781 26.640625 L 19.441406 26.640625 L 19.441406 25.199219 L 18.800781 25.199219 C 18.71875 24.933594 18.640625 24.667969 18.480469 24.453125 L 18.933594 24 L 17.921875 22.960938 L 17.464844 23.414062 C 17.226562 23.28125 16.988281 23.171875 16.71875 23.09375 L 16.71875 22.453125 L 15.28125 22.453125 L 15.28125 23.09375 C 15.011719 23.171875 14.773438 23.253906 14.535156 23.414062 L 14.078125 22.960938 L 13.066406 24 L 13.519531 24.453125 C 13.386719 24.691406 13.28125 24.933594 13.199219 25.199219 L 12.558594 25.199219 L 12.558594 26.640625 L 13.199219 26.640625 C 13.253906 26.878906 13.359375 27.09375 13.464844 27.308594 C 13.464844 27.332031 13.492188 27.359375 13.519531 27.386719 L 13.066406 27.839844 L 13.839844 28.613281 L 14.320312 28.613281 L 14.535156 28.398438 C 14.667969 28.480469 14.828125 28.558594 14.960938 28.613281 L 17.039062 28.613281 C 17.199219 28.558594 17.332031 28.480469 17.464844 28.398438 L 17.679688 28.613281 L 18.160156 28.613281 L 18.960938 27.839844 L 18.507812 27.386719 C 18.535156 27.359375 18.535156 27.332031 18.558594 27.28125 C 18.667969 27.09375 18.746094 26.878906 18.800781 26.640625 Z M 16.320312 27.492188 C 16.214844 27.519531 16.105469 27.519531 16 27.519531 C 15.894531 27.519531 15.785156 27.519531 15.679688 27.492188 C 15.519531 27.464844 15.359375 27.386719 15.199219 27.308594 C 14.71875 27.039062 14.398438 26.507812 14.398438 25.921875 C 14.398438 25.039062 15.121094 24.320312 16 24.320312 C 16.878906 24.320312 17.601562 25.039062 17.601562 25.921875 C 17.601562 26.507812 17.28125 27.011719 16.800781 27.308594 C 16.667969 27.386719 16.480469 27.441406 16.320312 27.492188 Z M 16.320312 27.492188 "/>
<path style=" stroke:none;fill-rule:nonzero;fill:rgb(26.666668%,56.078434%,98.823529%);fill-opacity:1;" d="M 27.011719 27.945312 C 27.011719 28.132812 26.933594 28.292969 26.828125 28.425781 C 26.71875 28.558594 26.535156 28.613281 26.347656 28.613281 L 5.652344 28.613281 C 5.28125 28.613281 4.988281 28.320312 4.988281 27.945312 C 4.988281 27.761719 5.066406 27.601562 5.171875 27.464844 C 5.28125 27.332031 5.464844 27.28125 5.652344 27.28125 L 26.347656 27.28125 C 26.71875 27.308594 27.011719 27.601562 27.011719 27.945312 Z M 27.011719 27.945312 "/>
<path style=" stroke:none;fill-rule:nonzero;fill:rgb(100%,67.450982%,35.294119%);fill-opacity:1;" d="M 19.972656 5.574219 C 19.652344 6.292969 19.199219 6.933594 18.667969 7.492188 C 17.332031 8.90625 15.441406 9.785156 13.332031 9.785156 C 12.613281 9.785156 11.921875 9.679688 11.253906 9.492188 C 11.359375 6.238281 13.519531 4.238281 16.238281 4.160156 C 16.292969 4.160156 16.347656 4.160156 16.398438 4.160156 C 17.8125 4.160156 19.039062 4.667969 19.972656 5.574219 Z M 19.972656 5.574219 "/>
<path style=" stroke:none;fill-rule:nonzero;fill:rgb(100%,67.450982%,35.294119%);fill-opacity:1;" d="M 20.558594 8.828125 C 19.519531 8.585938 18.558594 8.132812 17.761719 7.492188 C 18.292969 6.933594 18.746094 6.292969 19.066406 5.574219 C 19.839844 6.375 20.398438 7.464844 20.558594 8.828125 Z M 20.558594 8.828125 "/>
</g>
</svg>
