<?xml version="1.0" encoding="UTF-8"?>
<svg xmlns="http://www.w3.org/2000/svg" xmlns:xlink="http://www.w3.org/1999/xlink" width="32px" height="px" viewBox="0 0 32 32" version="1.1">
<g id="surface1">
<path style=" stroke:none;fill-rule:nonzero;fill:rgb(11.372549%,63.137257%,94.901961%);fill-opacity:1;" d="M 10.117188 28.824219 C 22.046875 28.824219 28.570312 18.941406 28.570312 10.371094 C 28.570312 10.089844 28.570312 9.8125 28.550781 9.53125 C 29.820312 8.613281 30.917969 7.476562 31.789062 6.175781 C 30.605469 6.699219 29.347656 7.042969 28.0625 7.195312 C 29.417969 6.386719 30.429688 5.109375 30.914062 3.609375 C 29.640625 4.363281 28.25 4.898438 26.796875 5.183594 C 24.339844 2.570312 20.230469 2.445312 17.617188 4.902344 C 15.933594 6.484375 15.21875 8.847656 15.742188 11.097656 C 10.527344 10.835938 5.667969 8.375 2.375 4.320312 C 0.65625 7.285156 1.535156 11.078125 4.382812 12.980469 C 3.351562 12.949219 2.34375 12.671875 1.441406 12.167969 C 1.441406 12.195312 1.441406 12.222656 1.441406 12.25 C 1.441406 15.335938 3.617188 17.996094 6.644531 18.609375 C 5.6875 18.867188 4.6875 18.90625 3.714844 18.71875 C 4.566406 21.363281 7 23.171875 9.773438 23.222656 C 7.476562 25.027344 4.640625 26.007812 1.71875 26.003906 C 1.203125 26.003906 0.6875 25.972656 0.175781 25.910156 C 3.140625 27.816406 6.59375 28.824219 10.117188 28.820312 "/>
</g>
</svg>
