<?xml version="1.0" encoding="UTF-8"?>
<svg xmlns="http://www.w3.org/2000/svg" xmlns:xlink="http://www.w3.org/1999/xlink" width="32px" height="px" viewBox="0 0 32 32" version="1.1">
<g id="surface1">
<path style=" stroke:none;fill-rule:evenodd;fill:rgb(0%,0%,0%);fill-opacity:1;" d="M 29.867188 19.199219 C 28.6875 19.199219 27.734375 20.15625 27.734375 21.332031 L 27.734375 25.601562 L 4.265625 25.601562 L 4.265625 21.332031 C 4.265625 20.15625 3.3125 19.199219 2.132812 19.199219 C 0.957031 19.199219 0 20.15625 0 21.332031 L 0 28.800781 C 0 29.3125 0.554688 29.867188 1.066406 29.867188 L 30.933594 29.867188 C 31.578125 29.867188 32 29.378906 32 28.800781 L 32 21.332031 C 32 20.15625 31.042969 19.199219 29.867188 19.199219 Z M 11.734375 10.667969 L 13.867188 10.667969 L 13.867188 20.265625 C 13.867188 21.445312 14.824219 22.398438 16 22.398438 C 17.175781 22.398438 18.132812 21.445312 18.132812 20.265625 L 18.132812 10.667969 L 20.265625 10.667969 C 21.019531 10.667969 21.679688 10.769531 22.101562 10.347656 C 22.515625 9.925781 22.515625 9.246094 22.101562 8.824219 L 16.828125 2.433594 C 16.605469 2.210938 16.308594 2.113281 16.015625 2.132812 C 15.726562 2.113281 15.429688 2.210938 15.207031 2.433594 L 9.933594 8.824219 C 9.515625 9.246094 9.515625 9.925781 9.933594 10.347656 C 10.351562 10.769531 11.316406 10.667969 11.734375 10.667969 Z M 11.734375 10.667969 "/>
</g>
</svg>
