<?xml version="1.0" encoding="UTF-8"?>
<svg xmlns="http://www.w3.org/2000/svg" xmlns:xlink="http://www.w3.org/1999/xlink" width="60px" height="60px" viewBox="0 0 60 60" version="1.1">
<defs>
<filter id="alpha" filterUnits="objectBoundingBox" x="0%" y="0%" width="100%" height="100%">
  <feColorMatrix type="matrix" in="SourceGraphic" values="0 0 0 0 1 0 0 0 0 1 0 0 0 0 1 0 0 0 1 0"/>
</filter>
<mask id="mask0">
  <g filter="url(#alpha)">
<rect x="0" y="0" width="60" height="60" style="fill:rgb(0%,0%,0%);fill-opacity:0.501961;stroke:none;"/>
  </g>
</mask>
<clipPath id="clip1">
  <rect x="0" y="0" width="60" height="60"/>
</clipPath>
<g id="surface5" clip-path="url(#clip1)">
<path style=" stroke:none;fill-rule:nonzero;fill:rgb(10.980392%,15.294118%,29.803923%);fill-opacity:1;" d="M 5 30 C 5 18.214844 5 12.324219 8.660156 8.660156 C 12.324219 5 18.214844 5 30 5 C 41.785156 5 47.679688 5 51.339844 8.660156 C 55 12.324219 55 18.214844 55 30 C 55 41.785156 55 47.679688 51.339844 51.339844 C 47.679688 55 41.785156 55 30 55 C 18.214844 55 12.324219 55 8.660156 51.339844 C 5 47.679688 5 41.785156 5 30 Z M 5 30 "/>
</g>
</defs>
<g id="surface1">
<use xlink:href="#surface5" mask="url(#mask0)"/>
<path style=" stroke:none;fill-rule:nonzero;fill:rgb(10.980392%,15.294118%,29.803923%);fill-opacity:1;" d="M 20 19.375 C 18.964844 19.375 18.125 18.535156 18.125 17.5 C 18.125 16.464844 18.964844 15.625 20 15.625 L 40 15.625 C 41.035156 15.625 41.875 16.464844 41.875 17.5 C 41.875 18.535156 41.035156 19.375 40 19.375 Z M 20 19.375 "/>
<path style=" stroke:none;fill-rule:nonzero;fill:rgb(10.980392%,15.294118%,29.803923%);fill-opacity:1;" d="M 31.875 42.5 C 31.875 43.535156 31.035156 44.375 30 44.375 C 28.964844 44.375 28.125 43.535156 28.125 42.5 L 28.125 29.527344 L 23.824219 33.824219 C 23.09375 34.558594 21.90625 34.558594 21.175781 33.824219 C 20.441406 33.09375 20.441406 31.90625 21.175781 31.175781 L 28.675781 23.675781 C 29.027344 23.324219 29.503906 23.125 30 23.125 C 30.496094 23.125 30.972656 23.324219 31.324219 23.675781 L 38.824219 31.175781 C 39.558594 31.90625 39.558594 33.09375 38.824219 33.824219 C 38.09375 34.558594 36.90625 34.558594 36.175781 33.824219 L 31.875 29.527344 Z M 31.875 42.5 "/>
</g>
</svg>
