<?xml version="1.0" encoding="UTF-8"?>
<svg xmlns="http://www.w3.org/2000/svg" xmlns:xlink="http://www.w3.org/1999/xlink" width="24px" height="px" viewBox="0 0 24 24" version="1.1">
<g id="surface1">
<path style=" stroke:none;fill-rule:nonzero;fill:rgb(0%,0%,0%);fill-opacity:1;" d="M 11.929688 10.382812 C 12.820312 10.382812 13.546875 11.109375 13.546875 12 C 13.546875 12.890625 12.820312 13.59375 11.929688 13.59375 C 11.039062 13.59375 10.335938 12.890625 10.335938 12 C 10.335938 11.109375 11.039062 10.382812 11.929688 10.382812 Z M 11.929688 6.398438 C 17.226562 6.398438 21.046875 11.367188 21.046875 11.367188 C 21.304688 11.695312 21.304688 12.28125 21.046875 12.609375 C 21.046875 12.609375 17.226562 17.578125 11.929688 17.578125 C 6.632812 17.578125 2.8125 12.609375 2.8125 12.609375 C 2.554688 12.28125 2.554688 11.695312 2.8125 11.367188 C 2.8125 11.367188 6.632812 6.398438 11.929688 6.398438 Z M 11.929688 16.007812 C 14.132812 16.007812 15.9375 14.203125 15.9375 12 C 15.9375 9.796875 14.132812 7.992188 11.929688 7.992188 C 9.726562 7.992188 7.921875 9.796875 7.921875 12 C 7.921875 14.203125 9.726562 16.007812 11.929688 16.007812 Z M 11.929688 16.007812 "/>
</g>
</svg>
